<svg baseProfile="full" height="400px" version="1.1" viewBox="0,0,1000.0,1000.0" width="400px" xmlns="http://www.w3.org/2000/svg" xmlns:ev="http://www.w3.org/2001/xml-events" xmlns:xlink="http://www.w3.org/1999/xlink"><defs><marker id="id1" markerHeight="20" markerUnits="strokeWidth" markerWidth="20" orient="auto" refX="1.0" refY="0.5" viewBox="0,0,1,1"><polygon fill="black" points="0,0.2 1,0.5 0,0.8" stroke="none" /></marker></defs><g><rect fill="none" height="90.0" rx="20.0" ry="20.0" stroke="black" stroke-width="1px" width="140.0" x="850.0" y="500.0" /><text font-family="monospace" font-size="20.0" text-anchor="middle" x="920.0" y="503.0"><tspan dy="30.0" font-family="monospace" font-size="20.0" font-weight="bold" text-anchor="middle" x="920.0">Node[0]</tspan><tspan dy="30.0" font-family="monospace" font-size="20.0" font-weight="normal" text-anchor="middle" x="920.0">ABCDEF</tspan></text></g><g><rect fill="none" height="90.0" rx="20.0" ry="20.0" stroke="black" stroke-width="1px" width="140.0" x="499.999970198" y="900.0" /><text font-family="monospace" font-size="20.0" text-anchor="middle" x="569.999970198" y="903.0"><tspan dy="30.0" font-family="monospace" font-size="20.0" font-weight="bold" text-anchor="middle" x="569.999970198">Node[1]</tspan><tspan dy="30.0" font-family="monospace" font-size="20.0" font-weight="normal" text-anchor="middle" x="569.999970198">ABCDEF</tspan></text></g><g><rect fill="none" height="90.0" rx="20.0" ry="20.0" stroke="black" stroke-width="1px" width="140.0" x="10.0" y="499.999970198" /><text font-family="monospace" font-size="20.0" text-anchor="middle" x="80.0" y="502.999970198"><tspan dy="30.0" font-family="monospace" font-size="20.0" font-weight="bold" text-anchor="middle" x="80.0">Node[2]</tspan><tspan dy="30.0" font-family="monospace" font-size="20.0" font-weight="normal" text-anchor="middle" x="80.0">ABCDEF</tspan></text></g><g><rect fill="none" height="90.0" rx="20.0" ry="20.0" stroke="black" stroke-width="1px" width="140.0" x="500.0" y="10.0" /><text font-family="monospace" font-size="20.0" text-anchor="middle" x="570.0" y="13.0"><tspan dy="30.0" font-family="monospace" font-size="20.0" font-weight="bold" text-anchor="middle" x="570.0">Node[3]</tspan><tspan dy="30.0" font-family="monospace" font-size="20.0" font-weight="normal" text-anchor="middle" x="570.0">ABCDEF</tspan></text></g><g><path d="M 920.0 590.0 639.999970198 945.0" marker-end="url(#id1)" stroke="black" stroke-width="1px" /><text font-family="monospace" font-size="20.0" text-anchor="middle" transform="rotate(308.263991751,779.999985099,767.5) translate(0,-10.0)" x="779.999985099" y="767.5">Edge[0, 1]</text></g><g><path d="M 850.0 545.0 150.0 544.999970198" marker-end="url(#id1)" stroke="black" stroke-width="1px" /><text font-family="monospace" font-size="20.0" text-anchor="middle" transform="rotate(2.43935326694e-06,500.0,544.999985099) translate(0,-10.0)" x="500.0" y="544.999985099">Edge[0, 2]</text></g><g><path d="M 920.0 500.0 570.0 100.0" marker-end="url(#id1)" stroke="black" stroke-width="1px" /><text font-family="monospace" font-size="20.0" text-anchor="middle" transform="rotate(48.8140748343,745.0,300.0) translate(0,-10.0)" x="745.0" y="300.0">Edge[0, 3]</text></g><g><path d="M 499.999970198 945.0 150.0 544.999970198" marker-end="url(#id1)" stroke="black" stroke-width="1px" /><text font-family="monospace" font-size="20.0" text-anchor="middle" transform="rotate(48.8140793676,324.999985099,744.999985099) translate(0,-10.0)" x="324.999985099" y="744.999985099">Edge[1, 2]</text></g><g><path d="M 150.0 544.999970198 570.0 100.0" marker-end="url(#id1)" stroke="black" stroke-width="1px" /><text font-family="monospace" font-size="20.0" text-anchor="middle" transform="rotate(133.344515376,360.0,322.499985099) translate(0,-10.0)" x="360.0" y="322.499985099">Edge[2, 3]</text></g><g><path d="M 570.0 100.0 920.0 500.0" marker-end="url(#id1)" stroke="black" stroke-width="1px" /><text font-family="monospace" font-size="20.0" text-anchor="middle" transform="rotate(228.814074834,745.0,300.0) translate(0,-10.0)" x="745.0" y="300.0">Edge[3, 0]</text></g></svg>
