<svg baseProfile="full" height="400px" preserveAspectRatio="xMidYMid meet" version="1.1" viewBox="0,0,1000.0,1000.0" width="400px" xmlns="http://www.w3.org/2000/svg" xmlns:ev="http://www.w3.org/2001/xml-events" xmlns:xlink="http://www.w3.org/1999/xlink"><defs><marker id="id1" markerHeight="20" markerUnits="strokeWidth" markerWidth="20" orient="auto" refX="1.0" refY="0.5" viewBox="0,0,1,1"><polygon fill="black" points="0,0.2 1,0.5 0,0.8" stroke="none" /></marker></defs><g><rect fill="none" height="60.0" rx="20.0" ry="20.0" stroke="black" stroke-width="1px" width="140.0" x="850.0" y="500.0" /><text font-family="monospace" font-size="20.0" text-anchor="middle" transform="translate(0,-10.0)" x="920.0" y="530.0"><tspan font-family="monospace" font-size="20.0" font-weight="bold" text-anchor="middle" x="920.0" y="530.0">Node[0]</tspan><tspan font-family="monospace" font-size="20.0" font-weight="normal" text-anchor="middle" x="920.0" y="560.0">{}</tspan></text></g><g><rect fill="none" height="60.0" rx="20.0" ry="20.0" stroke="black" stroke-width="1px" width="140.0" x="618.03394556" y="930.0" /><text font-family="monospace" font-size="20.0" text-anchor="middle" transform="translate(0,-10.0)" x="688.03394556" y="960.0"><tspan font-family="monospace" font-size="20.0" font-weight="bold" text-anchor="middle" x="688.03394556" y="960.0">Node[1]</tspan><tspan font-family="monospace" font-size="20.0" font-weight="normal" text-anchor="middle" x="688.03394556" y="990.0">{}</tspan></text></g><g><rect fill="none" height="60.0" rx="20.0" ry="20.0" stroke="black" stroke-width="1px" width="140.0" x="10.0" y="809.017002583" /><text font-family="monospace" font-size="20.0" text-anchor="middle" transform="translate(0,-10.0)" x="80.0" y="839.017002583"><tspan font-family="monospace" font-size="20.0" font-weight="bold" text-anchor="middle" x="80.0" y="839.017002583">Node[2]</tspan><tspan font-family="monospace" font-size="20.0" font-weight="normal" text-anchor="middle" x="80.0" y="869.017002583">{}</tspan></text></g><g><rect fill="none" height="60.0" rx="20.0" ry="20.0" stroke="black" stroke-width="1px" width="140.0" x="10.0" y="190.982937813" /><text font-family="monospace" font-size="20.0" text-anchor="middle" transform="translate(0,-10.0)" x="80.0" y="220.982937813"><tspan font-family="monospace" font-size="20.0" font-weight="bold" text-anchor="middle" x="80.0" y="220.982937813">Node[3]</tspan><tspan font-family="monospace" font-size="20.0" font-weight="normal" text-anchor="middle" x="80.0" y="250.982937813">{}</tspan></text></g><g><rect fill="none" height="60.0" rx="20.0" ry="20.0" stroke="black" stroke-width="1px" width="140.0" x="618.03406477" y="10.0" /><text font-family="monospace" font-size="20.0" text-anchor="middle" transform="translate(0,-10.0)" x="688.03406477" y="40.0"><tspan font-family="monospace" font-size="20.0" font-weight="bold" text-anchor="middle" x="688.03406477" y="40.0">Node[5]</tspan><tspan font-family="monospace" font-size="20.0" font-weight="normal" text-anchor="middle" x="688.03406477" y="70.0">{}</tspan></text></g><g><path d="M 920.0 560.0 Q 929.789330046 694.99420235 871.797816436 787.49420235 Q 813.806302826 879.99420235 688.03394556 930.0" fill="none" marker-mid="url(#id1)" stroke="black" stroke-width="1px" /><text font-family="monospace" font-size="20.0" text-anchor="middle" transform="rotate(302.085050317,871.797816436,787.49420235) translate(0,-10.0)" x="871.797816436" y="787.49420235"><tspan font-family="monospace" font-size="20.0" font-weight="bold" text-anchor="middle" x="871.797816436" y="787.49420235">Edge[0, 1]:{}</tspan></text></g><g><path d="M 920.0 560.0 Q 862.00848639 652.5 804.01697278 745.0 Q 746.02545917 837.5 688.03394556 930.0" fill="none" marker-mid="url(#id1)" stroke="black" stroke-width="1px" /><text font-family="monospace" font-size="20.0" text-anchor="middle" transform="rotate(302.085050317,804.01697278,745.0) translate(0,-10.0)" x="804.01697278" y="745.0"><tspan font-family="monospace" font-size="20.0" font-weight="bold" text-anchor="middle" x="804.01697278" y="745.0">Edge[0, 1]:{}</tspan></text></g><g><path d="M 920.0 560.0 Q 794.227642735 610.00579765 736.236129125 702.50579765 Q 678.244615515 795.00579765 688.03394556 930.0" fill="none" marker-mid="url(#id1)" stroke="black" stroke-width="1px" /><text font-family="monospace" font-size="20.0" text-anchor="middle" transform="rotate(302.085050317,736.236129125,702.50579765) translate(0,-10.0)" x="736.236129125" y="702.50579765"><tspan font-family="monospace" font-size="20.0" font-weight="bold" text-anchor="middle" x="736.236129125" y="702.50579765">Edge[0, 1]:{}</tspan></text></g><g><path d="M 850.0 530.0 Q 691.154073954 643.847226675 516.154073954 721.10147732 Q 341.154073954 798.355727966 150.0 839.017002583" fill="none" marker-mid="url(#id1)" stroke="black" stroke-width="1px" /><text font-family="monospace" font-size="20.0" text-anchor="middle" transform="rotate(336.180801926,516.154073954,721.10147732) translate(0,-10.0)" x="516.154073954" y="721.10147732"><tspan font-family="monospace" font-size="20.0" font-weight="bold" text-anchor="middle" x="516.154073954" y="721.10147732">Edge[0, 2]:{}</tspan></text></g><g><path d="M 850.0 530.0 Q 658.845926046 570.661274616 483.845926046 647.915525262 Q 308.845926046 725.169775908 150.0 839.017002583" fill="none" marker-mid="url(#id1)" stroke="black" stroke-width="1px" /><text font-family="monospace" font-size="20.0" text-anchor="middle" transform="rotate(336.180801926,483.845926046,647.915525262) translate(0,-10.0)" x="483.845926046" y="647.915525262"><tspan font-family="monospace" font-size="20.0" font-weight="bold" text-anchor="middle" x="483.845926046" y="647.915525262">Edge[0, 2]:{}</tspan></text></g><g><path d="M 850.0 530.0 Q 642.691846876 525.931684209 467.691846876 448.677418662 Q 292.691846876 371.423153116 150.0 220.982937813" fill="none" marker-mid="url(#id1)" stroke="black" stroke-width="1px" /><text font-family="monospace" font-size="20.0" text-anchor="middle" transform="rotate(23.8192021568,467.691846876,448.677418662) translate(0,-10.0)" x="467.691846876" y="448.677418662"><tspan font-family="monospace" font-size="20.0" font-weight="bold" text-anchor="middle" x="467.691846876" y="448.677418662">Edge[0, 3]:{}</tspan></text></g><g><path d="M 850.0 530.0 Q 675.0 452.745734453 500.0 375.491468906 Q 325.0 298.23720336 150.0 220.982937813" fill="none" marker-mid="url(#id1)" stroke="black" stroke-width="1px" /><text font-family="monospace" font-size="20.0" text-anchor="middle" transform="rotate(23.8192021568,500.0,375.491468906) translate(0,-10.0)" x="500.0" y="375.491468906"><tspan font-family="monospace" font-size="20.0" font-weight="bold" text-anchor="middle" x="500.0" y="375.491468906">Edge[0, 3]:{}</tspan></text></g><g><path d="M 618.03394556 960.0 Q 501.02545917 929.754250646 384.01697278 899.508501291 Q 267.00848639 869.262751937 150.0 839.017002583" fill="none" marker-mid="url(#id1)" stroke="black" stroke-width="1px" /><text font-family="monospace" font-size="20.0" text-anchor="middle" transform="rotate(14.4932516111,384.01697278,899.508501291) translate(0,-10.0)" x="384.01697278" y="899.508501291"><tspan font-family="monospace" font-size="20.0" font-weight="bold" text-anchor="middle" x="384.01697278" y="899.508501291">Edge[1, 2]:{}</tspan></text></g><g><path d="M 80.0 809.017002583 Q 80.0 669.50848639 80.0 529.999970198 Q 80.0 390.491454005 80.0 250.982937813" fill="none" marker-mid="url(#id1)" stroke="black" stroke-width="1px" /><text font-family="monospace" font-size="20.0" text-anchor="middle" transform="rotate(90.0,80.0,529.999970198) translate(0,-10.0)" x="80.0" y="529.999970198"><tspan font-family="monospace" font-size="20.0" font-weight="bold" text-anchor="middle" x="80.0" y="529.999970198">Edge[2, 3]:{}</tspan></text></g><g><path d="M 150.0 220.982937813 Q 357.308153124 225.051253604 532.308153124 302.30551915 Q 707.308153124 379.559784697 850.0 530.0" fill="none" marker-mid="url(#id1)" stroke="black" stroke-width="1px" /><text font-family="monospace" font-size="20.0" text-anchor="middle" transform="rotate(203.819202157,532.308153124,302.30551915) translate(0,-10.0)" x="532.308153124" y="302.30551915"><tspan font-family="monospace" font-size="20.0" font-weight="bold" text-anchor="middle" x="532.308153124" y="302.30551915">Edge[3, 0]:{}</tspan></text></g><g><path d="M 688.03406477 70.0 Q 654.777292827 99.2658012007 637.277292827 91.7658012007 Q 619.777292827 84.2658012007 618.03406477 40.0" fill="none" marker-mid="url(#id1)" stroke="black" stroke-width="1px" /><text font-family="monospace" font-size="20.0" text-anchor="middle" transform="rotate(23.1985905136,637.277292827,91.7658012007) translate(0,-10.0)" x="637.277292827" y="91.7658012007"><tspan font-family="monospace" font-size="20.0" font-weight="bold" text-anchor="middle" x="637.277292827" y="91.7658012007">Edge[5, 5]:{}</tspan></text></g></svg>
