<svg baseProfile="full" height="800px" preserveAspectRatio="xMidYMid meet" version="1.1" viewBox="0,0,1000.0,1000.0" width="800px" xmlns="http://www.w3.org/2000/svg" xmlns:ev="http://www.w3.org/2001/xml-events" xmlns:xlink="http://www.w3.org/1999/xlink"><defs><marker id="id1" markerHeight="10.0" markerUnits="strokeWidth" markerWidth="10.0" orient="auto" refX="5.0" refY="5.0" viewBox="0,0,10.0,10.0"><polygon fill="green" points="0,2.0 10.0,5.0 0,8.0" stroke="none" /></marker><marker id="id2" markerHeight="10.0" markerUnits="strokeWidth" markerWidth="10.0" orient="auto" refX="0.0" refY="5.0" viewBox="0,0,10.0,10.0"><circle cx="5.0" cy="5.0" fill="green" r="5.0" stroke="none" /></marker><marker id="id3" markerHeight="12.0" markerUnits="strokeWidth" markerWidth="12.0" orient="auto" refX="12.0" refY="6.0" viewBox="-1.0,-1.0,12.0,12.0"><polygon fill="white" points="0,2.0 10.0,5.0 0,8.0" stroke="green" stroke-linecap="round" stroke-width="1.0" /></marker><marker id="id4" markerHeight="10.0" markerUnits="strokeWidth" markerWidth="10.0" orient="auto" refX="5.0" refY="5.0" viewBox="0,0,10.0,10.0"><polygon fill="green" points="0,2.0 10.0,5.0 0,8.0" stroke="none" /></marker><marker id="id5" markerHeight="10.0" markerUnits="strokeWidth" markerWidth="10.0" orient="auto" refX="0.0" refY="5.0" viewBox="0,0,10.0,10.0"><circle cx="5.0" cy="5.0" fill="green" r="5.0" stroke="none" /></marker><marker id="id6" markerHeight="12.0" markerUnits="strokeWidth" markerWidth="12.0" orient="auto" refX="12.0" refY="6.0" viewBox="-1.0,-1.0,12.0,12.0"><polygon fill="white" points="0,2.0 10.0,5.0 0,8.0" stroke="green" stroke-linecap="round" stroke-width="1.0" /></marker><marker id="id7" markerHeight="10.0" markerUnits="strokeWidth" markerWidth="10.0" orient="auto" refX="5.0" refY="5.0" viewBox="0,0,10.0,10.0"><polygon fill="green" points="0,2.0 10.0,5.0 0,8.0" stroke="none" /></marker><marker id="id8" markerHeight="10.0" markerUnits="strokeWidth" markerWidth="10.0" orient="auto" refX="0.0" refY="5.0" viewBox="0,0,10.0,10.0"><circle cx="5.0" cy="5.0" fill="green" r="5.0" stroke="none" /></marker><marker id="id9" markerHeight="12.0" markerUnits="strokeWidth" markerWidth="12.0" orient="auto" refX="12.0" refY="6.0" viewBox="-1.0,-1.0,12.0,12.0"><polygon fill="white" points="0,2.0 10.0,5.0 0,8.0" stroke="green" stroke-linecap="round" stroke-width="1.0" /></marker><marker id="id10" markerHeight="12.0" markerUnits="strokeWidth" markerWidth="12.0" orient="auto" refX="6.0" refY="6.0" viewBox="-1.0,-1.0,12.0,12.0"><polygon fill="white" points="0,2.0 10.0,5.0 0,8.0" stroke="yellow" stroke-linecap="round" stroke-width="1.0" /></marker><marker id="id11" markerHeight="10.0" markerUnits="strokeWidth" markerWidth="10.0" orient="auto" refX="0.0" refY="5.0" viewBox="0,0,10.0,10.0"><polygon fill="yellow" points="0,2.0 10.0,5.0 0,8.0" stroke="none" /></marker><marker id="id12" markerHeight="12.0" markerUnits="strokeWidth" markerWidth="12.0" orient="auto" refX="12.0" refY="6.0" viewBox="-1.0,-1.0,12.0,12.0"><circle cx="5.0" cy="5.0" fill="white" r="5.0" stroke="yellow" stroke-width="1.0" /></marker><marker id="id13" markerHeight="12.0" markerUnits="strokeWidth" markerWidth="12.0" orient="auto" refX="6.0" refY="6.0" viewBox="-1.0,-1.0,12.0,12.0"><polygon fill="white" points="0,2.0 10.0,5.0 0,8.0" stroke="yellow" stroke-linecap="round" stroke-width="1.0" /></marker><marker id="id14" markerHeight="10.0" markerUnits="strokeWidth" markerWidth="10.0" orient="auto" refX="0.0" refY="5.0" viewBox="0,0,10.0,10.0"><polygon fill="yellow" points="0,2.0 10.0,5.0 0,8.0" stroke="none" /></marker><marker id="id15" markerHeight="12.0" markerUnits="strokeWidth" markerWidth="12.0" orient="auto" refX="12.0" refY="6.0" viewBox="-1.0,-1.0,12.0,12.0"><circle cx="5.0" cy="5.0" fill="white" r="5.0" stroke="yellow" stroke-width="1.0" /></marker><marker id="id16" markerHeight="12.0" markerUnits="strokeWidth" markerWidth="12.0" orient="auto" refX="6.0" refY="6.0" viewBox="-1.0,-1.0,12.0,12.0"><circle cx="5.0" cy="5.0" fill="white" r="5.0" stroke="blue" stroke-width="1.0" /></marker><marker id="id17" markerHeight="12.0" markerUnits="strokeWidth" markerWidth="12.0" orient="auto" refX="0.0" refY="6.0" viewBox="-1.0,-1.0,12.0,12.0"><polygon fill="white" points="0,2.0 10.0,5.0 0,8.0" stroke="blue" stroke-linecap="round" stroke-width="1.0" /></marker><marker id="id18" markerHeight="10.0" markerUnits="strokeWidth" markerWidth="10.0" orient="auto" refX="10.0" refY="5.0" viewBox="0,0,10.0,10.0"><circle cx="5.0" cy="5.0" fill="blue" r="5.0" stroke="none" /></marker><marker id="id19" markerHeight="12.0" markerUnits="strokeWidth" markerWidth="12.0" orient="auto" refX="6.0" refY="6.0" viewBox="-1.0,-1.0,12.0,12.0"><circle cx="5.0" cy="5.0" fill="white" r="5.0" stroke="blue" stroke-width="1.0" /></marker><marker id="id20" markerHeight="12.0" markerUnits="strokeWidth" markerWidth="12.0" orient="auto" refX="0.0" refY="6.0" viewBox="-1.0,-1.0,12.0,12.0"><polygon fill="white" points="0,2.0 10.0,5.0 0,8.0" stroke="blue" stroke-linecap="round" stroke-width="1.0" /></marker><marker id="id21" markerHeight="10.0" markerUnits="strokeWidth" markerWidth="10.0" orient="auto" refX="10.0" refY="5.0" viewBox="0,0,10.0,10.0"><circle cx="5.0" cy="5.0" fill="blue" r="5.0" stroke="none" /></marker><marker id="id22" markerHeight="12.0" markerUnits="strokeWidth" markerWidth="12.0" orient="auto" refX="6.0" refY="6.0" viewBox="-1.0,-1.0,12.0,12.0"><circle cx="5.0" cy="5.0" fill="white" r="5.0" stroke="blue" stroke-width="1.0" /></marker><marker id="id23" markerHeight="12.0" markerUnits="strokeWidth" markerWidth="12.0" orient="auto" refX="0.0" refY="6.0" viewBox="-1.0,-1.0,12.0,12.0"><polygon fill="white" points="0,2.0 10.0,5.0 0,8.0" stroke="blue" stroke-linecap="round" stroke-width="1.0" /></marker><marker id="id24" markerHeight="10.0" markerUnits="strokeWidth" markerWidth="10.0" orient="auto" refX="10.0" refY="5.0" viewBox="0,0,10.0,10.0"><circle cx="5.0" cy="5.0" fill="blue" r="5.0" stroke="none" /></marker><marker id="id25" markerHeight="10.0" markerUnits="strokeWidth" markerWidth="10.0" orient="auto" refX="5.0" refY="5.0" viewBox="0,0,10.0,10.0"><polygon fill="red" points="0,2.0 10.0,5.0 0,8.0" stroke="none" /></marker><marker id="id26" markerHeight="10.0" markerUnits="strokeWidth" markerWidth="10.0" orient="auto" refX="0.0" refY="5.0" viewBox="0,0,10.0,10.0"><circle cx="5.0" cy="5.0" fill="red" r="5.0" stroke="none" /></marker><marker id="id27" markerHeight="12.0" markerUnits="strokeWidth" markerWidth="12.0" orient="auto" refX="12.0" refY="6.0" viewBox="-1.0,-1.0,12.0,12.0"><polygon fill="white" points="0,2.0 10.0,5.0 0,8.0" stroke="red" stroke-linecap="round" stroke-width="1.0" /></marker><marker id="id28" markerHeight="12.0" markerUnits="strokeWidth" markerWidth="12.0" orient="auto" refX="6.0" refY="6.0" viewBox="-1.0,-1.0,12.0,12.0"><circle cx="5.0" cy="5.0" fill="white" r="5.0" stroke="blue" stroke-width="1.0" /></marker><marker id="id29" markerHeight="12.0" markerUnits="strokeWidth" markerWidth="12.0" orient="auto" refX="0.0" refY="6.0" viewBox="-1.0,-1.0,12.0,12.0"><polygon fill="white" points="0,2.0 10.0,5.0 0,8.0" stroke="blue" stroke-linecap="round" stroke-width="1.0" /></marker><marker id="id30" markerHeight="10.0" markerUnits="strokeWidth" markerWidth="10.0" orient="auto" refX="10.0" refY="5.0" viewBox="0,0,10.0,10.0"><circle cx="5.0" cy="5.0" fill="blue" r="5.0" stroke="none" /></marker><marker id="id31" markerHeight="12.0" markerUnits="strokeWidth" markerWidth="12.0" orient="auto" refX="6.0" refY="6.0" viewBox="-1.0,-1.0,12.0,12.0"><polygon fill="white" points="0,2.0 10.0,5.0 0,8.0" stroke="red" stroke-linecap="round" stroke-width="1.0" /></marker><marker id="id32" markerHeight="10.0" markerUnits="strokeWidth" markerWidth="10.0" orient="auto" refX="0.0" refY="5.0" viewBox="0,0,10.0,10.0"><polygon fill="red" points="0,2.0 10.0,5.0 0,8.0" stroke="none" /></marker><marker id="id33" markerHeight="12.0" markerUnits="strokeWidth" markerWidth="12.0" orient="auto" refX="12.0" refY="6.0" viewBox="-1.0,-1.0,12.0,12.0"><circle cx="5.0" cy="5.0" fill="white" r="5.0" stroke="red" stroke-width="1.0" /></marker></defs><g><rect fill="red" height="30.0" rx="20.0" ry="20.0" stroke="green" stroke-width="1px" width="140.0" x="850.0" y="500.0" /><text font-family="monospace" font-size="20.0" text-anchor="middle" transform="translate(0,-10.0)" x="920.0" y="530.0"><tspan font-family="monospace" font-size="20.0" font-weight="bold" text-anchor="middle" x="920.0" y="530.0">Node[0]</tspan></text></g><g><rect fill="green" height="30.0" rx="20.0" ry="20.0" stroke="yellow" stroke-width="2px" width="140.0" x="618.03394556" y="960.0" /><text font-family="monospace" font-size="20.0" text-anchor="middle" transform="translate(0,-10.0)" x="688.03394556" y="990.0"><tspan font-family="monospace" font-size="20.0" font-weight="bold" text-anchor="middle" x="688.03394556" y="990.0">Node[1]</tspan></text></g><g><rect fill="yellow" height="30.0" rx="20.0" ry="20.0" stroke="white" stroke-width="3px" width="140.0" x="10.0" y="809.017002583" /><text font-family="monospace" font-size="20.0" text-anchor="middle" transform="translate(0,-10.0)" x="80.0" y="839.017002583"><tspan font-family="monospace" font-size="20.0" font-weight="bold" text-anchor="middle" x="80.0" y="839.017002583">Node[2]</tspan></text></g><g><rect fill="white" height="30.0" rx="20.0" ry="20.0" stroke="blue" stroke-width="4px" width="140.0" x="10.0" y="190.982937813" /><text font-family="monospace" font-size="20.0" text-anchor="middle" transform="translate(0,-10.0)" x="80.0" y="220.982937813"><tspan font-family="monospace" font-size="20.0" font-weight="bold" text-anchor="middle" x="80.0" y="220.982937813">Node[3]</tspan></text></g><g><rect fill="gray" height="30.0" rx="20.0" ry="20.0" stroke="red" stroke-width="6px" width="140.0" x="618.03406477" y="10.0" /><text font-family="monospace" font-size="20.0" text-anchor="middle" transform="translate(0,-10.0)" x="688.03406477" y="40.0"><tspan font-family="monospace" font-size="20.0" font-weight="bold" text-anchor="middle" x="688.03406477" y="40.0">Node[5]</tspan></text></g><g><path d="M 920.0 530.0 Q 932.416927318 675.482251724 874.425413709 782.982251724 Q 816.433900099 890.482251724 688.03394556 960.0" fill="none" marker-end="url(#id3)" marker-mid="url(#id1)" marker-start="url(#id2)" stroke="green" stroke-linecap="butt" stroke-width="2px" /><text font-family="monospace" font-size="20.0" text-anchor="middle" transform="rotate(298.344906157,874.425413709,782.982251724) translate(0,-10.0)" x="874.425413709" y="782.982251724"><tspan font-family="monospace" font-size="20.0" font-weight="bold" text-anchor="middle" x="874.425413709" y="782.982251724">Edge[0, 1]</tspan></text></g><g><path d="M 920.0 530.0 Q 862.00848639 637.5 804.01697278 745.0 Q 746.02545917 852.5 688.03394556 960.0" fill="none" marker-end="url(#id6)" marker-mid="url(#id4)" marker-start="url(#id5)" stroke="green" stroke-linecap="butt" stroke-width="2px" /><text font-family="monospace" font-size="20.0" text-anchor="middle" transform="rotate(298.344906157,804.01697278,745.0) translate(0,-10.0)" x="804.01697278" y="745.0"><tspan font-family="monospace" font-size="20.0" font-weight="bold" text-anchor="middle" x="804.01697278" y="745.0">Edge[0, 1]</tspan></text></g><g><path d="M 920.0 530.0 Q 791.600045462 599.517748276 733.608531852 707.017748276 Q 675.617018242 814.517748276 688.03394556 960.0" fill="none" marker-end="url(#id9)" marker-mid="url(#id7)" marker-start="url(#id8)" stroke="green" stroke-linecap="butt" stroke-width="2px" /><text font-family="monospace" font-size="20.0" text-anchor="middle" transform="rotate(298.344906157,733.608531852,707.017748276) translate(0,-10.0)" x="733.608531852" y="707.017748276"><tspan font-family="monospace" font-size="20.0" font-weight="bold" text-anchor="middle" x="733.608531852" y="707.017748276">Edge[0, 1]</tspan></text></g><g><path d="M 850.0 515.0 Q 691.154073954 628.847226675 516.154073954 706.10147732 Q 341.154073954 783.355727966 150.0 824.017002583" fill="none" marker-end="url(#id12)" marker-mid="url(#id10)" marker-start="url(#id11)" stroke="yellow" stroke-linecap="butt" stroke-width="3px" /><text font-family="monospace" font-size="20.0" text-anchor="middle" transform="rotate(336.180801926,516.154073954,706.10147732) translate(0,-10.0)" x="516.154073954" y="706.10147732"><tspan font-family="monospace" font-size="20.0" font-weight="bold" text-anchor="middle" x="516.154073954" y="706.10147732">Edge[0, 2]</tspan></text></g><g><path d="M 850.0 515.0 Q 658.845926046 555.661274616 483.845926046 632.915525262 Q 308.845926046 710.169775908 150.0 824.017002583" fill="none" marker-end="url(#id15)" marker-mid="url(#id13)" marker-start="url(#id14)" stroke="yellow" stroke-linecap="butt" stroke-width="3px" /><text font-family="monospace" font-size="20.0" text-anchor="middle" transform="rotate(336.180801926,483.845926046,632.915525262) translate(0,-10.0)" x="483.845926046" y="632.915525262"><tspan font-family="monospace" font-size="20.0" font-weight="bold" text-anchor="middle" x="483.845926046" y="632.915525262">Edge[0, 2]</tspan></text></g><g><path d="M 850.0 515.0 Q 642.691846876 510.931684209 467.691846876 433.677418662 Q 292.691846876 356.423153116 150.0 205.982937813" fill="none" marker-end="url(#id18)" marker-mid="url(#id16)" marker-start="url(#id17)" stroke="blue" stroke-linecap="butt" stroke-width="4px" /><text font-family="monospace" font-size="20.0" text-anchor="middle" transform="rotate(23.8192021568,467.691846876,433.677418662) translate(0,-10.0)" x="467.691846876" y="433.677418662"><tspan font-family="monospace" font-size="20.0" font-weight="bold" text-anchor="middle" x="467.691846876" y="433.677418662">Edge[0, 3]</tspan></text></g><g><path d="M 850.0 515.0 Q 675.0 437.745734453 500.0 360.491468906 Q 325.0 283.23720336 150.0 205.982937813" fill="none" marker-end="url(#id21)" marker-mid="url(#id19)" marker-start="url(#id20)" stroke="blue" stroke-linecap="butt" stroke-width="4px" /><text font-family="monospace" font-size="20.0" text-anchor="middle" transform="rotate(23.8192021568,500.0,360.491468906) translate(0,-10.0)" x="500.0" y="360.491468906"><tspan font-family="monospace" font-size="20.0" font-weight="bold" text-anchor="middle" x="500.0" y="360.491468906">Edge[0, 3]</tspan></text></g><g><path d="M 618.03394556 975.0 Q 501.02545917 937.254250646 384.01697278 899.508501291 Q 267.00848639 861.762751937 150.0 824.017002583" fill="none" marker-end="url(#id24)" marker-mid="url(#id22)" marker-start="url(#id23)" stroke="blue" stroke-linecap="butt" stroke-width="4px" /><text font-family="monospace" font-size="20.0" text-anchor="middle" transform="rotate(17.8791739664,384.01697278,899.508501291) translate(0,-10.0)" x="384.01697278" y="899.508501291"><tspan font-family="monospace" font-size="20.0" font-weight="bold" text-anchor="middle" x="384.01697278" y="899.508501291">Edge[1, 2]</tspan></text></g><g><path d="M 80.0 809.017002583 Q 80.0 662.00848639 80.0 514.999970198 Q 80.0 367.991454005 80.0 220.982937813" fill="none" marker-end="url(#id27)" marker-mid="url(#id25)" marker-start="url(#id26)" stroke="red" stroke-linecap="butt" stroke-width="6px" /><text font-family="monospace" font-size="20.0" text-anchor="middle" transform="rotate(90.0,80.0,514.999970198) translate(0,-10.0)" x="80.0" y="514.999970198"><tspan font-family="monospace" font-size="20.0" font-weight="bold" text-anchor="middle" x="80.0" y="514.999970198">Edge[2, 3]</tspan></text></g><g><path d="M 150.0 205.982937813 Q 357.308153124 210.051253604 532.308153124 287.30551915 Q 707.308153124 364.559784697 850.0 515.0" fill="none" marker-end="url(#id30)" marker-mid="url(#id28)" marker-start="url(#id29)" stroke="blue" stroke-linecap="butt" stroke-width="4px" /><text font-family="monospace" font-size="20.0" text-anchor="middle" transform="rotate(203.819202157,532.308153124,287.30551915) translate(0,-10.0)" x="532.308153124" y="287.30551915"><tspan font-family="monospace" font-size="20.0" font-weight="bold" text-anchor="middle" x="532.308153124" y="287.30551915">Edge[3, 0]</tspan></text></g><g><path d="M 688.03406477 40.0 Q 662.152901221 75.3620965631 644.652901221 71.6120965631 Q 627.152901221 67.8620965631 618.03406477 25.0" fill="none" marker-end="url(#id33)" marker-mid="url(#id31)" marker-start="url(#id32)" stroke="red" stroke-linecap="butt" stroke-width="11px" /><text font-family="monospace" font-size="20.0" text-anchor="middle" transform="rotate(12.094757077,644.652901221,71.6120965631) translate(0,-10.0)" x="644.652901221" y="71.6120965631"><tspan font-family="monospace" font-size="20.0" font-weight="bold" text-anchor="middle" x="644.652901221" y="71.6120965631">Edge[5, 5]</tspan></text></g></svg>