<svg baseProfile="full" height="400px" preserveAspectRatio="xMidYMid meet" version="1.1" viewBox="-150.0,-100.0,1800.0,1200.0" width="600px" xmlns="http://www.w3.org/2000/svg" xmlns:ev="http://www.w3.org/2001/xml-events" xmlns:xlink="http://www.w3.org/1999/xlink"><defs><marker id="id1" markerHeight="12.0" markerUnits="strokeWidth" markerWidth="12.0" orient="auto" refX="6.0" refY="6.0"><circle cx="6.0" cy="6.0" fill="white" r="5.0" stroke="blue" stroke-width="1.0" /></marker><marker id="id2" markerHeight="12.0" markerUnits="strokeWidth" markerWidth="12.0" orient="auto" refX="0.0" refY="6.0"><polygon fill="white" points="1.0,3.0 11.0,6.0 1.0,9.0" stroke="blue" stroke-linecap="round" stroke-width="1.0" /></marker><marker id="id3" markerHeight="10.0" markerUnits="strokeWidth" markerWidth="10.0" orient="auto" refX="10.0" refY="5.0"><circle cx="5.0" cy="5.0" fill="blue" r="5.0" stroke="none" /></marker><marker id="id4" markerHeight="10.0" markerUnits="strokeWidth" markerWidth="10.0" orient="auto" refX="5.0" refY="5.0"><polygon fill="green" points="0,2.0 10.0,5.0 0,8.0" stroke="none" /></marker><marker id="id5" markerHeight="10.0" markerUnits="strokeWidth" markerWidth="10.0" orient="auto" refX="0.0" refY="5.0"><circle cx="5.0" cy="5.0" fill="green" r="5.0" stroke="none" /></marker><marker id="id6" markerHeight="12.0" markerUnits="strokeWidth" markerWidth="12.0" orient="auto" refX="12.0" refY="6.0"><polygon fill="white" points="1.0,3.0 11.0,6.0 1.0,9.0" stroke="green" stroke-linecap="round" stroke-width="1.0" /></marker><marker id="id7" markerHeight="10.0" markerUnits="strokeWidth" markerWidth="10.0" orient="auto" refX="5.0" refY="5.0"><polygon fill="green" points="0,2.0 10.0,5.0 0,8.0" stroke="none" /></marker><marker id="id8" markerHeight="10.0" markerUnits="strokeWidth" markerWidth="10.0" orient="auto" refX="0.0" refY="5.0"><circle cx="5.0" cy="5.0" fill="green" r="5.0" stroke="none" /></marker><marker id="id9" markerHeight="12.0" markerUnits="strokeWidth" markerWidth="12.0" orient="auto" refX="12.0" refY="6.0"><polygon fill="white" points="1.0,3.0 11.0,6.0 1.0,9.0" stroke="green" stroke-linecap="round" stroke-width="1.0" /></marker><marker id="id10" markerHeight="10.0" markerUnits="strokeWidth" markerWidth="10.0" orient="auto" refX="5.0" refY="5.0"><circle cx="5.0" cy="5.0" fill="gray" r="5.0" stroke="none" /></marker><marker id="id11" markerHeight="12.0" markerUnits="strokeWidth" markerWidth="12.0" orient="auto" refX="0.0" refY="6.0"><circle cx="6.0" cy="6.0" fill="white" r="5.0" stroke="gray" stroke-width="1.0" /></marker><marker id="id12" markerHeight="10.0" markerUnits="strokeWidth" markerWidth="10.0" orient="auto" refX="10.0" refY="5.0"><polygon fill="gray" points="0,2.0 10.0,5.0 0,8.0" stroke="none" /></marker><marker id="id13" markerHeight="12.0" markerUnits="strokeWidth" markerWidth="12.0" orient="auto" refX="6.0" refY="6.0"><polygon fill="white" points="1.0,3.0 11.0,6.0 1.0,9.0" stroke="yellow" stroke-linecap="round" stroke-width="1.0" /></marker><marker id="id14" markerHeight="10.0" markerUnits="strokeWidth" markerWidth="10.0" orient="auto" refX="0.0" refY="5.0"><polygon fill="yellow" points="0,2.0 10.0,5.0 0,8.0" stroke="none" /></marker><marker id="id15" markerHeight="12.0" markerUnits="strokeWidth" markerWidth="12.0" orient="auto" refX="12.0" refY="6.0"><circle cx="6.0" cy="6.0" fill="white" r="5.0" stroke="yellow" stroke-width="1.0" /></marker><marker id="id16" markerHeight="12.0" markerUnits="strokeWidth" markerWidth="12.0" orient="auto" refX="6.0" refY="6.0"><circle cx="6.0" cy="6.0" fill="white" r="5.0" stroke="blue" stroke-width="1.0" /></marker><marker id="id17" markerHeight="12.0" markerUnits="strokeWidth" markerWidth="12.0" orient="auto" refX="0.0" refY="6.0"><polygon fill="white" points="1.0,3.0 11.0,6.0 1.0,9.0" stroke="blue" stroke-linecap="round" stroke-width="1.0" /></marker><marker id="id18" markerHeight="10.0" markerUnits="strokeWidth" markerWidth="10.0" orient="auto" refX="10.0" refY="5.0"><circle cx="5.0" cy="5.0" fill="blue" r="5.0" stroke="none" /></marker><marker id="id19" markerHeight="10.0" markerUnits="strokeWidth" markerWidth="10.0" orient="auto" refX="5.0" refY="5.0"><polygon fill="red" points="0,2.0 10.0,5.0 0,8.0" stroke="none" /></marker><marker id="id20" markerHeight="10.0" markerUnits="strokeWidth" markerWidth="10.0" orient="auto" refX="0.0" refY="5.0"><circle cx="5.0" cy="5.0" fill="red" r="5.0" stroke="none" /></marker><marker id="id21" markerHeight="12.0" markerUnits="strokeWidth" markerWidth="12.0" orient="auto" refX="12.0" refY="6.0"><polygon fill="white" points="1.0,3.0 11.0,6.0 1.0,9.0" stroke="red" stroke-linecap="round" stroke-width="1.0" /></marker><marker id="id22" markerHeight="10.0" markerUnits="strokeWidth" markerWidth="10.0" orient="auto" refX="5.0" refY="5.0"><polygon fill="red" points="0,2.0 10.0,5.0 0,8.0" stroke="none" /></marker><marker id="id23" markerHeight="10.0" markerUnits="strokeWidth" markerWidth="10.0" orient="auto" refX="0.0" refY="5.0"><circle cx="5.0" cy="5.0" fill="red" r="5.0" stroke="none" /></marker><marker id="id24" markerHeight="12.0" markerUnits="strokeWidth" markerWidth="12.0" orient="auto" refX="12.0" refY="6.0"><polygon fill="white" points="1.0,3.0 11.0,6.0 1.0,9.0" stroke="red" stroke-linecap="round" stroke-width="1.0" /></marker><marker id="id25" markerHeight="10.0" markerUnits="strokeWidth" markerWidth="10.0" orient="auto" refX="5.0" refY="5.0"><polygon fill="red" points="0,2.0 10.0,5.0 0,8.0" stroke="none" /></marker><marker id="id26" markerHeight="10.0" markerUnits="strokeWidth" markerWidth="10.0" orient="auto" refX="0.0" refY="5.0"><circle cx="5.0" cy="5.0" fill="red" r="5.0" stroke="none" /></marker><marker id="id27" markerHeight="12.0" markerUnits="strokeWidth" markerWidth="12.0" orient="auto" refX="12.0" refY="6.0"><polygon fill="white" points="1.0,3.0 11.0,6.0 1.0,9.0" stroke="red" stroke-linecap="round" stroke-width="1.0" /></marker><marker id="id28" markerHeight="10.0" markerUnits="strokeWidth" markerWidth="10.0" orient="auto" refX="5.0" refY="5.0"><circle cx="5.0" cy="5.0" fill="gray" r="5.0" stroke="none" /></marker><marker id="id29" markerHeight="12.0" markerUnits="strokeWidth" markerWidth="12.0" orient="auto" refX="0.0" refY="6.0"><circle cx="6.0" cy="6.0" fill="white" r="5.0" stroke="gray" stroke-width="1.0" /></marker><marker id="id30" markerHeight="10.0" markerUnits="strokeWidth" markerWidth="10.0" orient="auto" refX="10.0" refY="5.0"><polygon fill="gray" points="0,2.0 10.0,5.0 0,8.0" stroke="none" /></marker><marker id="id31" markerHeight="12.0" markerUnits="strokeWidth" markerWidth="12.0" orient="auto" refX="6.0" refY="6.0"><polygon fill="white" points="1.0,3.0 11.0,6.0 1.0,9.0" stroke="red" stroke-linecap="round" stroke-width="1.0" /></marker><marker id="id32" markerHeight="10.0" markerUnits="strokeWidth" markerWidth="10.0" orient="auto" refX="0.0" refY="5.0"><polygon fill="red" points="0,2.0 10.0,5.0 0,8.0" stroke="none" /></marker><marker id="id33" markerHeight="12.0" markerUnits="strokeWidth" markerWidth="12.0" orient="auto" refX="12.0" refY="6.0"><circle cx="6.0" cy="6.0" fill="white" r="5.0" stroke="red" stroke-width="1.0" /></marker><marker id="id34" markerHeight="12.0" markerUnits="strokeWidth" markerWidth="12.0" orient="auto" refX="6.0" refY="6.0"><circle cx="6.0" cy="6.0" fill="white" r="5.0" stroke="green" stroke-width="1.0" /></marker><marker id="id35" markerHeight="12.0" markerUnits="strokeWidth" markerWidth="12.0" orient="auto" refX="0.0" refY="6.0"><polygon fill="white" points="1.0,3.0 11.0,6.0 1.0,9.0" stroke="green" stroke-linecap="round" stroke-width="1.0" /></marker><marker id="id36" markerHeight="10.0" markerUnits="strokeWidth" markerWidth="10.0" orient="auto" refX="10.0" refY="5.0"><circle cx="5.0" cy="5.0" fill="green" r="5.0" stroke="none" /></marker></defs><g><rect fill="red" height="45.0" rx="20.0" ry="20.0" stroke="green" stroke-width="1px" width="170.0" x="1230.0" y="477.5" /><rect fill="green" height="45.0" rx="20.0" ry="20.0" stroke="yellow" stroke-width="2px" width="170.0" x="842.050961985" y="855.0" /><rect fill="yellow" height="45.0" rx="20.0" ry="20.0" stroke="white" stroke-width="3px" width="170.0" x="100.0" y="786.51700167" /><rect fill="white" height="45.0" rx="20.0" ry="20.0" stroke="blue" stroke-width="4px" width="170.0" x="100.0" y="168.482935658" /><rect fill="gray" height="45.0" rx="20.0" ry="20.0" stroke="red" stroke-width="6px" width="170.0" x="842.051060831" y="100.0" /></g><g><path d="M 1315.0 522.5 Q 1360.96994515 715.112198784 1285.23268564 803.862198784 Q 1209.49542614 892.612198784 1012.05096198 877.5" fill="none" marker-end="url(#id3)" marker-mid="url(#id1)" marker-start="url(#id2)" stroke="blue" stroke-linecap="butt" stroke-width="4px" /><path d="M 1315.0 522.5 Q 1239.2627405 611.25 1163.52548099 700.0 Q 1087.78822149 788.75 1012.05096198 877.5" fill="none" marker-end="url(#id6)" marker-mid="url(#id4)" marker-start="url(#id5)" stroke="green" stroke-linecap="butt" stroke-width="2px" /><path d="M 1315.0 522.5 Q 1117.55553585 507.387801216 1041.81827634 596.137801216 Q 966.081016838 684.887801216 1012.05096198 877.5" fill="none" marker-end="url(#id9)" marker-mid="url(#id7)" marker-start="url(#id8)" stroke="green" stroke-linecap="butt" stroke-width="2px" /><path d="M 1230.0 500.0 Q 1014.51276757 653.40623152 774.512767574 730.660481937 Q 534.512767574 807.914732355 270.0 809.01700167" fill="none" marker-end="url(#id12)" marker-mid="url(#id10)" marker-start="url(#id11)" stroke="gray" stroke-linecap="butt" stroke-width="5px" /><path d="M 1230.0 500.0 Q 965.487232426 501.102269315 725.487232426 578.356519732 Q 485.487232426 655.61077015 270.0 809.01700167" fill="none" marker-end="url(#id15)" marker-mid="url(#id13)" marker-start="url(#id14)" stroke="yellow" stroke-linecap="butt" stroke-width="3px" /><path d="M 1230.0 500.0 Q 940.974455842 575.04969322 700.974455842 497.795427134 Q 460.974455842 420.541161049 270.0 190.982935658" fill="none" marker-end="url(#id18)" marker-mid="url(#id16)" marker-start="url(#id17)" stroke="blue" stroke-linecap="butt" stroke-width="4px" /><path d="M 1230.0 500.0 Q 990.0 422.745733915 750.0 345.491467829 Q 510.0 268.237201744 270.0 190.982935658" fill="none" marker-end="url(#id21)" marker-mid="url(#id19)" marker-start="url(#id20)" stroke="red" stroke-linecap="butt" stroke-width="6px" /><path d="M 842.050961985 877.5 Q 699.038221489 860.379250417 556.025480992 843.258500835 Q 413.012740496 826.137751252 270.0 809.01700167" fill="none" marker-end="url(#id24)" marker-mid="url(#id22)" marker-start="url(#id23)" stroke="red" stroke-linecap="butt" stroke-width="6px" /><path d="M 185.0 786.51700167 Q 185.0 643.258485167 185.0 499.999968664 Q 185.0 356.741452161 185.0 213.482935658" fill="none" marker-end="url(#id27)" marker-mid="url(#id25)" marker-start="url(#id26)" stroke="red" stroke-linecap="butt" stroke-width="6px" /><path d="M 270.0 190.982935658 Q 559.025544158 115.933242439 799.025544158 193.187508524 Q 1039.02554416 270.44177461 1230.0 500.0" fill="none" marker-end="url(#id30)" marker-mid="url(#id28)" marker-start="url(#id29)" stroke="gray" stroke-linecap="butt" stroke-width="5px" /><path d="M 927.051060831 100.0 Q 1071.12948978 -358.393509374 1092.37948978 -352.768509374 Q 1113.62948978 -347.143509374 1012.05106083 122.5" fill="none" marker-end="url(#id33)" marker-mid="url(#id31)" marker-start="url(#id32)" stroke="red" stroke-linecap="butt" stroke-width="11px" /><path d="M 927.051060831 145.0 Q 864.85825118 294.047836458 843.60825118 288.422836458 Q 822.35825118 282.797836458 842.051060831 122.5" fill="none" marker-end="url(#id36)" marker-mid="url(#id34)" marker-start="url(#id35)" stroke="green" stroke-linecap="butt" stroke-width="12px" /></g><g><text font-family="monospace" font-size="20.0" text-anchor="middle" transform="rotate(310.476698174,1285.23268564,803.862198784) translate(0,-10.0)" x="1285.23268564" y="773.862198784"><tspan font-family="monospace" font-size="20.0" font-weight="bold" text-anchor="middle" x="1285.23268564" y="773.862198784">Edge</tspan><tspan font-family="monospace" font-size="20.0" font-weight="normal" text-anchor="middle" x="1285.23268564" y="803.862198784">[0, 1]</tspan></text><text font-family="monospace" font-size="20.0" text-anchor="middle" transform="rotate(310.476698174,1163.52548099,700.0) translate(0,-10.0)" x="1163.52548099" y="670.0"><tspan font-family="monospace" font-size="20.0" font-weight="bold" text-anchor="middle" x="1163.52548099" y="670.0">Edge</tspan><tspan font-family="monospace" font-size="20.0" font-weight="normal" text-anchor="middle" x="1163.52548099" y="700.0">[0, 1]</tspan></text><text font-family="monospace" font-size="20.0" text-anchor="middle" transform="rotate(310.476698174,1041.81827634,596.137801216) translate(0,-10.0)" x="1041.81827634" y="566.137801216"><tspan font-family="monospace" font-size="20.0" font-weight="bold" text-anchor="middle" x="1041.81827634" y="566.137801216">Edge</tspan><tspan font-family="monospace" font-size="20.0" font-weight="normal" text-anchor="middle" x="1041.81827634" y="596.137801216">[0, 1]</tspan></text><text font-family="monospace" font-size="20.0" text-anchor="middle" transform="rotate(342.157011389,774.512767574,730.660481937) translate(0,-10.0)" x="774.512767574" y="700.660481937"><tspan font-family="monospace" font-size="20.0" font-weight="bold" text-anchor="middle" x="774.512767574" y="700.660481937">Edge</tspan><tspan font-family="monospace" font-size="20.0" font-weight="normal" text-anchor="middle" x="774.512767574" y="730.660481937">[0, 2]</tspan></text><text font-family="monospace" font-size="20.0" text-anchor="middle" transform="rotate(342.157011389,725.487232426,578.356519732) translate(0,-10.0)" x="725.487232426" y="548.356519732"><tspan font-family="monospace" font-size="20.0" font-weight="bold" text-anchor="middle" x="725.487232426" y="548.356519732">Edge</tspan><tspan font-family="monospace" font-size="20.0" font-weight="normal" text-anchor="middle" x="725.487232426" y="578.356519732">[0, 2]</tspan></text><text font-family="monospace" font-size="20.0" text-anchor="middle" transform="rotate(17.8429920002,700.974455842,497.795427134) translate(0,-10.0)" x="700.974455842" y="467.795427134"><tspan font-family="monospace" font-size="20.0" font-weight="bold" text-anchor="middle" x="700.974455842" y="467.795427134">Edge</tspan><tspan font-family="monospace" font-size="20.0" font-weight="normal" text-anchor="middle" x="700.974455842" y="497.795427134">[0, 3]</tspan></text><text font-family="monospace" font-size="20.0" text-anchor="middle" transform="rotate(17.8429920002,750.0,345.491467829) translate(0,-10.0)" x="750.0" y="315.491467829"><tspan font-family="monospace" font-size="20.0" font-weight="bold" text-anchor="middle" x="750.0" y="315.491467829">Edge</tspan><tspan font-family="monospace" font-size="20.0" font-weight="normal" text-anchor="middle" x="750.0" y="345.491467829">[0, 3]</tspan></text><text font-family="monospace" font-size="20.0" text-anchor="middle" transform="rotate(6.82666722248,556.025480992,843.258500835) translate(0,-10.0)" x="556.025480992" y="813.258500835"><tspan font-family="monospace" font-size="20.0" font-weight="bold" text-anchor="middle" x="556.025480992" y="813.258500835">Edge</tspan><tspan font-family="monospace" font-size="20.0" font-weight="normal" text-anchor="middle" x="556.025480992" y="843.258500835">[1, 2]</tspan></text><text font-family="monospace" font-size="20.0" text-anchor="middle" transform="rotate(90.0,185.0,499.999968664) translate(0,-10.0)" x="185.0" y="469.999968664"><tspan font-family="monospace" font-size="20.0" font-weight="bold" text-anchor="middle" x="185.0" y="469.999968664">Edge</tspan><tspan font-family="monospace" font-size="20.0" font-weight="normal" text-anchor="middle" x="185.0" y="499.999968664">[2, 3]</tspan></text><text font-family="monospace" font-size="20.0" text-anchor="middle" transform="rotate(197.842992,799.025544158,193.187508524) translate(0,-10.0)" x="799.025544158" y="163.187508524"><tspan font-family="monospace" font-size="20.0" font-weight="bold" text-anchor="middle" x="799.025544158" y="163.187508524">Edge</tspan><tspan font-family="monospace" font-size="20.0" font-weight="normal" text-anchor="middle" x="799.025544158" y="193.187508524">[3, 0]</tspan></text><text font-family="monospace" font-size="20.0" text-anchor="middle" transform="rotate(194.82647997,1092.37948978,-352.768509374) translate(0,-10.0)" x="1092.37948978" y="-382.768509374"><tspan font-family="monospace" font-size="20.0" font-weight="bold" text-anchor="middle" x="1092.37948978" y="-382.768509374">Edge</tspan><tspan font-family="monospace" font-size="20.0" font-weight="normal" text-anchor="middle" x="1092.37948978" y="-352.768509374">[5, 5]</tspan></text><text font-family="monospace" font-size="20.0" text-anchor="middle" transform="rotate(14.8264799704,843.60825118,288.422836458) translate(0,-10.0)" x="843.60825118" y="258.422836458"><tspan font-family="monospace" font-size="20.0" font-weight="bold" text-anchor="middle" x="843.60825118" y="258.422836458">Edge</tspan><tspan font-family="monospace" font-size="20.0" font-weight="normal" text-anchor="middle" x="843.60825118" y="288.422836458">[5, 5]</tspan></text><text font-family="monospace" font-size="20.0" text-anchor="middle" transform="translate(0,-10.0)" x="1315.0" y="517.5"><tspan font-family="monospace" font-size="20.0" font-weight="bold" text-anchor="middle" x="1315.0" y="517.5">Node[0]</tspan></text><text font-family="monospace" font-size="20.0" text-anchor="middle" transform="translate(0,-10.0)" x="927.050961985" y="895.0"><tspan font-family="monospace" font-size="20.0" font-weight="bold" text-anchor="middle" x="927.050961985" y="895.0">Node[1]</tspan></text><text font-family="monospace" font-size="20.0" text-anchor="middle" transform="translate(0,-10.0)" x="185.0" y="826.51700167"><tspan font-family="monospace" font-size="20.0" font-weight="bold" text-anchor="middle" x="185.0" y="826.51700167">Node[2]</tspan></text><text font-family="monospace" font-size="20.0" text-anchor="middle" transform="translate(0,-10.0)" x="185.0" y="208.482935658"><tspan font-family="monospace" font-size="20.0" font-weight="bold" text-anchor="middle" x="185.0" y="208.482935658">Node[3]</tspan></text><text font-family="monospace" font-size="20.0" text-anchor="middle" transform="translate(0,-10.0)" x="927.051060831" y="140.0"><tspan font-family="monospace" font-size="20.0" font-weight="bold" text-anchor="middle" x="927.051060831" y="140.0">Node[5]</tspan></text></g></svg>