<svg baseProfile="full" height="1200px" preserveAspectRatio="xMidYMid meet" version="1.1" viewBox="0,0,1000.0,1000.0" width="1200px" xmlns="http://www.w3.org/2000/svg" xmlns:ev="http://www.w3.org/2001/xml-events" xmlns:xlink="http://www.w3.org/1999/xlink"><defs><marker id="id1" markerHeight="20" markerUnits="strokeWidth" markerWidth="20" orient="auto" refX="1.0" refY="0.5" viewBox="0,0,1,1"><polygon fill="black" points="0,0.2 1,0.5 0,0.8" stroke="none" /></marker></defs><g><rect fill="none" height="60.0" rx="20.0" ry="20.0" stroke="black" stroke-width="1px" width="140.0" x="850.0" y="500.0" /><text font-family="monospace" font-size="20.0" text-anchor="middle" transform="translate(0,-10.0)" x="920.0" y="530.0"><tspan font-family="monospace" font-size="20.0" font-weight="bold" text-anchor="middle" x="920.0" y="530.0">Node[0]</tspan><tspan font-family="monospace" font-size="20.0" font-weight="normal" text-anchor="middle" x="920.0" y="560.0">{}</tspan></text></g><g><rect fill="none" height="60.0" rx="20.0" ry="20.0" stroke="black" stroke-width="1px" width="140.0" x="499.999970198" y="930.0" /><text font-family="monospace" font-size="20.0" text-anchor="middle" transform="translate(0,-10.0)" x="569.999970198" y="960.0"><tspan font-family="monospace" font-size="20.0" font-weight="bold" text-anchor="middle" x="569.999970198" y="960.0">Node[1]</tspan><tspan font-family="monospace" font-size="20.0" font-weight="normal" text-anchor="middle" x="569.999970198" y="990.0">{}</tspan></text></g><g><rect fill="none" height="60.0" rx="20.0" ry="20.0" stroke="black" stroke-width="1px" width="140.0" x="10.0" y="499.999970198" /><text font-family="monospace" font-size="20.0" text-anchor="middle" transform="translate(0,-10.0)" x="80.0" y="529.999970198"><tspan font-family="monospace" font-size="20.0" font-weight="bold" text-anchor="middle" x="80.0" y="529.999970198">Node[2]</tspan><tspan font-family="monospace" font-size="20.0" font-weight="normal" text-anchor="middle" x="80.0" y="559.999970198">{}</tspan></text></g><g><rect fill="none" height="60.0" rx="20.0" ry="20.0" stroke="black" stroke-width="1px" width="140.0" x="500.0" y="10.0" /><text font-family="monospace" font-size="20.0" text-anchor="middle" transform="translate(0,-10.0)" x="570.0" y="40.0"><tspan font-family="monospace" font-size="20.0" font-weight="bold" text-anchor="middle" x="570.0" y="40.0">Node[3]</tspan><tspan font-family="monospace" font-size="20.0" font-weight="normal" text-anchor="middle" x="570.0" y="70.0">{}</tspan></text></g><g><path d="M 920.0 560.0 Q 915.538543897 705.876990826 845.538536446 805.876990826 Q 775.538528996 905.876990826 639.999970198 960.0" fill="none" marker-mid="url(#id1)" stroke="black" stroke-width="1px" /><text font-family="monospace" font-size="20.0" text-anchor="middle" transform="rotate(304.992023064,845.538536446,805.876990826) translate(0,-10.0)" x="845.538536446" y="805.876990826"><tspan font-family="monospace" font-size="20.0" font-weight="bold" text-anchor="middle" x="845.538536446" y="805.876990826">Edge[0, 1]:{}</tspan></text></g><g><path d="M 920.0 560.0 Q 849.999992549 660.0 779.999985099 760.0 Q 709.999977648 860.0 639.999970198 960.0" fill="none" marker-mid="url(#id1)" stroke="black" stroke-width="1px" /><text font-family="monospace" font-size="20.0" text-anchor="middle" transform="rotate(304.992023064,779.999985099,760.0) translate(0,-10.0)" x="779.999985099" y="760.0"><tspan font-family="monospace" font-size="20.0" font-weight="bold" text-anchor="middle" x="779.999985099" y="760.0">Edge[0, 1]:{}</tspan></text></g><g><path d="M 920.0 560.0 Q 784.461441202 614.123009174 714.461433751 714.123009174 Q 644.461426301 814.123009174 639.999970198 960.0" fill="none" marker-mid="url(#id1)" stroke="black" stroke-width="1px" /><text font-family="monospace" font-size="20.0" text-anchor="middle" transform="rotate(304.992023064,714.461433751,714.123009174) translate(0,-10.0)" x="714.461433751" y="714.123009174"><tspan font-family="monospace" font-size="20.0" font-weight="bold" text-anchor="middle" x="714.461433751" y="714.123009174">Edge[0, 1]:{}</tspan></text></g><g><path d="M 850.0 530.0 Q 674.999998297 569.999992549 499.999998297 569.999985099 Q 324.999998297 569.999977648 150.0 529.999970198" fill="none" marker-mid="url(#id1)" stroke="black" stroke-width="1px" /><text font-family="monospace" font-size="20.0" text-anchor="middle" transform="rotate(2.43935326694e-06,499.999998297,569.999985099) translate(0,-10.0)" x="499.999998297" y="569.999985099"><tspan font-family="monospace" font-size="20.0" font-weight="bold" text-anchor="middle" x="499.999998297" y="569.999985099">Edge[0, 2]:{}</tspan></text></g><g><path d="M 850.0 530.0 Q 675.000001703 489.999992549 500.000001703 489.999985099 Q 325.000001703 489.999977648 150.0 529.999970198" fill="none" marker-mid="url(#id1)" stroke="black" stroke-width="1px" /><text font-family="monospace" font-size="20.0" text-anchor="middle" transform="rotate(2.43935326694e-06,500.000001703,489.999985099) translate(0,-10.0)" x="500.000001703" y="489.999985099"><tspan font-family="monospace" font-size="20.0" font-weight="bold" text-anchor="middle" x="500.000001703" y="489.999985099">Edge[0, 2]:{}</tspan></text></g><g><path d="M 920.0 500.0 Q 770.455039703 443.00171187 682.955039703 335.50171187 Q 595.455039703 228.00171187 570.0 70.0" fill="none" marker-mid="url(#id1)" stroke="black" stroke-width="1px" /><text font-family="monospace" font-size="20.0" text-anchor="middle" transform="rotate(50.8560135854,682.955039703,335.50171187) translate(0,-10.0)" x="682.955039703" y="335.50171187"><tspan font-family="monospace" font-size="20.0" font-weight="bold" text-anchor="middle" x="682.955039703" y="335.50171187">Edge[0, 3]:{}</tspan></text></g><g><path d="M 920.0 500.0 Q 832.5 392.5 745.0 285.0 Q 657.5 177.5 570.0 70.0" fill="none" marker-mid="url(#id1)" stroke="black" stroke-width="1px" /><text font-family="monospace" font-size="20.0" text-anchor="middle" transform="rotate(50.8560135854,745.0,285.0) translate(0,-10.0)" x="745.0" y="285.0"><tspan font-family="monospace" font-size="20.0" font-weight="bold" text-anchor="middle" x="745.0" y="285.0">Edge[0, 3]:{}</tspan></text></g><g><path d="M 499.999970198 960.0 Q 412.499977648 852.499992549 324.999985099 744.999985099 Q 237.499992549 637.499977648 150.0 529.999970198" fill="none" marker-mid="url(#id1)" stroke="black" stroke-width="1px" /><text font-family="monospace" font-size="20.0" text-anchor="middle" transform="rotate(50.8560179182,324.999985099,744.999985099) translate(0,-10.0)" x="324.999985099" y="744.999985099"><tspan font-family="monospace" font-size="20.0" font-weight="bold" text-anchor="middle" x="324.999985099" y="744.999985099">Edge[1, 2]:{}</tspan></text></g><g><path d="M 150.0 529.999970198 Q 255.0 414.999977648 360.0 299.999985099 Q 465.0 184.999992549 570.0 70.0" fill="none" marker-mid="url(#id1)" stroke="black" stroke-width="1px" /><text font-family="monospace" font-size="20.0" text-anchor="middle" transform="rotate(132.397439646,360.0,299.999985099) translate(0,-10.0)" x="360.0" y="299.999985099"><tspan font-family="monospace" font-size="20.0" font-weight="bold" text-anchor="middle" x="360.0" y="299.999985099">Edge[2, 3]:{}</tspan></text></g><g><path d="M 570.0 70.0 Q 719.544960297 126.99828813 807.044960297 234.49828813 Q 894.544960297 341.99828813 920.0 500.0" fill="none" marker-mid="url(#id1)" stroke="black" stroke-width="1px" /><text font-family="monospace" font-size="20.0" text-anchor="middle" transform="rotate(230.856013585,807.044960297,234.49828813) translate(0,-10.0)" x="807.044960297" y="234.49828813"><tspan font-family="monospace" font-size="20.0" font-weight="bold" text-anchor="middle" x="807.044960297" y="234.49828813">Edge[3, 0]:{}</tspan></text></g></svg>
