<svg baseProfile="full" height="600px" preserveAspectRatio="xMidYMid meet" version="1.1" viewBox="-133.333333333,-100.0,1600.0,1200.0" width="800px" xmlns="http://www.w3.org/2000/svg" xmlns:ev="http://www.w3.org/2001/xml-events" xmlns:xlink="http://www.w3.org/1999/xlink"><defs><marker id="id1" markerHeight="12.0" markerUnits="strokeWidth" markerWidth="12.0" orient="auto" refX="6.0" refY="6.0"><circle cx="6.0" cy="6.0" fill="white" r="5.0" stroke="blue" stroke-width="1.0" /></marker><marker id="id2" markerHeight="12.0" markerUnits="strokeWidth" markerWidth="12.0" orient="auto" refX="0.0" refY="6.0"><polygon fill="white" points="1.0,3.0 11.0,6.0 1.0,9.0" stroke="blue" stroke-linecap="round" stroke-width="1.0" /></marker><marker id="id3" markerHeight="10.0" markerUnits="strokeWidth" markerWidth="10.0" orient="auto" refX="10.0" refY="5.0"><circle cx="5.0" cy="5.0" fill="blue" r="5.0" stroke="none" /></marker><marker id="id4" markerHeight="10.0" markerUnits="strokeWidth" markerWidth="10.0" orient="auto" refX="5.0" refY="5.0"><polygon fill="green" points="0,2.0 10.0,5.0 0,8.0" stroke="none" /></marker><marker id="id5" markerHeight="10.0" markerUnits="strokeWidth" markerWidth="10.0" orient="auto" refX="0.0" refY="5.0"><circle cx="5.0" cy="5.0" fill="green" r="5.0" stroke="none" /></marker><marker id="id6" markerHeight="12.0" markerUnits="strokeWidth" markerWidth="12.0" orient="auto" refX="12.0" refY="6.0"><polygon fill="white" points="1.0,3.0 11.0,6.0 1.0,9.0" stroke="green" stroke-linecap="round" stroke-width="1.0" /></marker><marker id="id7" markerHeight="10.0" markerUnits="strokeWidth" markerWidth="10.0" orient="auto" refX="5.0" refY="5.0"><polygon fill="green" points="0,2.0 10.0,5.0 0,8.0" stroke="none" /></marker><marker id="id8" markerHeight="10.0" markerUnits="strokeWidth" markerWidth="10.0" orient="auto" refX="0.0" refY="5.0"><circle cx="5.0" cy="5.0" fill="green" r="5.0" stroke="none" /></marker><marker id="id9" markerHeight="12.0" markerUnits="strokeWidth" markerWidth="12.0" orient="auto" refX="12.0" refY="6.0"><polygon fill="white" points="1.0,3.0 11.0,6.0 1.0,9.0" stroke="green" stroke-linecap="round" stroke-width="1.0" /></marker><marker id="id10" markerHeight="10.0" markerUnits="strokeWidth" markerWidth="10.0" orient="auto" refX="5.0" refY="5.0"><circle cx="5.0" cy="5.0" fill="gray" r="5.0" stroke="none" /></marker><marker id="id11" markerHeight="12.0" markerUnits="strokeWidth" markerWidth="12.0" orient="auto" refX="0.0" refY="6.0"><circle cx="6.0" cy="6.0" fill="white" r="5.0" stroke="gray" stroke-width="1.0" /></marker><marker id="id12" markerHeight="10.0" markerUnits="strokeWidth" markerWidth="10.0" orient="auto" refX="10.0" refY="5.0"><polygon fill="gray" points="0,2.0 10.0,5.0 0,8.0" stroke="none" /></marker><marker id="id13" markerHeight="12.0" markerUnits="strokeWidth" markerWidth="12.0" orient="auto" refX="6.0" refY="6.0"><polygon fill="white" points="1.0,3.0 11.0,6.0 1.0,9.0" stroke="yellow" stroke-linecap="round" stroke-width="1.0" /></marker><marker id="id14" markerHeight="10.0" markerUnits="strokeWidth" markerWidth="10.0" orient="auto" refX="0.0" refY="5.0"><polygon fill="yellow" points="0,2.0 10.0,5.0 0,8.0" stroke="none" /></marker><marker id="id15" markerHeight="12.0" markerUnits="strokeWidth" markerWidth="12.0" orient="auto" refX="12.0" refY="6.0"><circle cx="6.0" cy="6.0" fill="white" r="5.0" stroke="yellow" stroke-width="1.0" /></marker><marker id="id16" markerHeight="12.0" markerUnits="strokeWidth" markerWidth="12.0" orient="auto" refX="6.0" refY="6.0"><circle cx="6.0" cy="6.0" fill="white" r="5.0" stroke="blue" stroke-width="1.0" /></marker><marker id="id17" markerHeight="12.0" markerUnits="strokeWidth" markerWidth="12.0" orient="auto" refX="0.0" refY="6.0"><polygon fill="white" points="1.0,3.0 11.0,6.0 1.0,9.0" stroke="blue" stroke-linecap="round" stroke-width="1.0" /></marker><marker id="id18" markerHeight="10.0" markerUnits="strokeWidth" markerWidth="10.0" orient="auto" refX="10.0" refY="5.0"><circle cx="5.0" cy="5.0" fill="blue" r="5.0" stroke="none" /></marker><marker id="id19" markerHeight="10.0" markerUnits="strokeWidth" markerWidth="10.0" orient="auto" refX="5.0" refY="5.0"><polygon fill="red" points="0,2.0 10.0,5.0 0,8.0" stroke="none" /></marker><marker id="id20" markerHeight="10.0" markerUnits="strokeWidth" markerWidth="10.0" orient="auto" refX="0.0" refY="5.0"><circle cx="5.0" cy="5.0" fill="red" r="5.0" stroke="none" /></marker><marker id="id21" markerHeight="12.0" markerUnits="strokeWidth" markerWidth="12.0" orient="auto" refX="12.0" refY="6.0"><polygon fill="white" points="1.0,3.0 11.0,6.0 1.0,9.0" stroke="red" stroke-linecap="round" stroke-width="1.0" /></marker><marker id="id22" markerHeight="10.0" markerUnits="strokeWidth" markerWidth="10.0" orient="auto" refX="5.0" refY="5.0"><polygon fill="red" points="0,2.0 10.0,5.0 0,8.0" stroke="none" /></marker><marker id="id23" markerHeight="10.0" markerUnits="strokeWidth" markerWidth="10.0" orient="auto" refX="0.0" refY="5.0"><circle cx="5.0" cy="5.0" fill="red" r="5.0" stroke="none" /></marker><marker id="id24" markerHeight="12.0" markerUnits="strokeWidth" markerWidth="12.0" orient="auto" refX="12.0" refY="6.0"><polygon fill="white" points="1.0,3.0 11.0,6.0 1.0,9.0" stroke="red" stroke-linecap="round" stroke-width="1.0" /></marker><marker id="id25" markerHeight="10.0" markerUnits="strokeWidth" markerWidth="10.0" orient="auto" refX="5.0" refY="5.0"><polygon fill="red" points="0,2.0 10.0,5.0 0,8.0" stroke="none" /></marker><marker id="id26" markerHeight="10.0" markerUnits="strokeWidth" markerWidth="10.0" orient="auto" refX="0.0" refY="5.0"><circle cx="5.0" cy="5.0" fill="red" r="5.0" stroke="none" /></marker><marker id="id27" markerHeight="12.0" markerUnits="strokeWidth" markerWidth="12.0" orient="auto" refX="12.0" refY="6.0"><polygon fill="white" points="1.0,3.0 11.0,6.0 1.0,9.0" stroke="red" stroke-linecap="round" stroke-width="1.0" /></marker><marker id="id28" markerHeight="10.0" markerUnits="strokeWidth" markerWidth="10.0" orient="auto" refX="5.0" refY="5.0"><circle cx="5.0" cy="5.0" fill="gray" r="5.0" stroke="none" /></marker><marker id="id29" markerHeight="12.0" markerUnits="strokeWidth" markerWidth="12.0" orient="auto" refX="0.0" refY="6.0"><circle cx="6.0" cy="6.0" fill="white" r="5.0" stroke="gray" stroke-width="1.0" /></marker><marker id="id30" markerHeight="10.0" markerUnits="strokeWidth" markerWidth="10.0" orient="auto" refX="10.0" refY="5.0"><polygon fill="gray" points="0,2.0 10.0,5.0 0,8.0" stroke="none" /></marker><marker id="id31" markerHeight="12.0" markerUnits="strokeWidth" markerWidth="12.0" orient="auto" refX="6.0" refY="6.0"><polygon fill="white" points="1.0,3.0 11.0,6.0 1.0,9.0" stroke="red" stroke-linecap="round" stroke-width="1.0" /></marker><marker id="id32" markerHeight="10.0" markerUnits="strokeWidth" markerWidth="10.0" orient="auto" refX="0.0" refY="5.0"><polygon fill="red" points="0,2.0 10.0,5.0 0,8.0" stroke="none" /></marker><marker id="id33" markerHeight="12.0" markerUnits="strokeWidth" markerWidth="12.0" orient="auto" refX="12.0" refY="6.0"><circle cx="6.0" cy="6.0" fill="white" r="5.0" stroke="red" stroke-width="1.0" /></marker><marker id="id34" markerHeight="12.0" markerUnits="strokeWidth" markerWidth="12.0" orient="auto" refX="6.0" refY="6.0"><circle cx="6.0" cy="6.0" fill="white" r="5.0" stroke="green" stroke-width="1.0" /></marker><marker id="id35" markerHeight="12.0" markerUnits="strokeWidth" markerWidth="12.0" orient="auto" refX="0.0" refY="6.0"><polygon fill="white" points="1.0,3.0 11.0,6.0 1.0,9.0" stroke="green" stroke-linecap="round" stroke-width="1.0" /></marker><marker id="id36" markerHeight="10.0" markerUnits="strokeWidth" markerWidth="10.0" orient="auto" refX="10.0" refY="5.0"><circle cx="5.0" cy="5.0" fill="green" r="5.0" stroke="none" /></marker></defs><g><rect fill="red" height="30.0" rx="20.0" ry="20.0" stroke="green" stroke-width="1px" width="160.0" x="1073.33333333" y="485.0" /><rect fill="green" height="30.0" rx="20.0" ry="20.0" stroke="yellow" stroke-width="2px" width="160.0" x="744.045299542" y="870.0" /><rect fill="yellow" height="30.0" rx="20.0" ry="20.0" stroke="white" stroke-width="3px" width="160.0" x="100.0" y="794.01700167" /><rect fill="white" height="30.0" rx="20.0" ry="20.0" stroke="blue" stroke-width="4px" width="160.0" x="100.0" y="175.982935658" /><rect fill="gray" height="30.0" rx="20.0" ry="20.0" stroke="red" stroke-width="6px" width="160.0" x="744.045387405" y="100.0" /></g><g><path d="M 1153.33333333 515.0 Q 1223.70389009 696.901807242 1161.38188165 789.401807242 Q 1099.0598732 881.901807242 904.045299542 885.0" fill="none" marker-end="url(#id3)" marker-mid="url(#id1)" marker-start="url(#id2)" stroke="blue" stroke-linecap="butt" stroke-width="4px" /><path d="M 1153.33333333 515.0 Q 1091.01132489 607.5 1028.68931644 700.0 Q 966.36730799 792.5 904.045299542 885.0" fill="none" marker-end="url(#id6)" marker-mid="url(#id4)" marker-start="url(#id5)" stroke="green" stroke-linecap="butt" stroke-width="2px" /><path d="M 1153.33333333 515.0 Q 958.318759676 518.098192758 895.996751229 610.598192758 Q 833.674742781 703.098192758 904.045299542 885.0" fill="none" marker-end="url(#id9)" marker-mid="url(#id7)" marker-start="url(#id8)" stroke="green" stroke-linecap="butt" stroke-width="2px" /><path d="M 1073.33333333 500.0 Q 898.413430433 652.038453101 695.0800971 729.292703518 Q 491.746763766 806.546953936 260.0 809.01700167" fill="none" marker-end="url(#id12)" marker-mid="url(#id10)" marker-start="url(#id11)" stroke="gray" stroke-linecap="butt" stroke-width="5px" /><path d="M 1073.33333333 500.0 Q 841.586569567 502.470047734 638.253236234 579.724298151 Q 434.9199029 656.978548569 260.0 809.01700167" fill="none" marker-end="url(#id15)" marker-mid="url(#id13)" marker-start="url(#id14)" stroke="yellow" stroke-linecap="butt" stroke-width="3px" /><path d="M 1073.33333333 500.0 Q 813.173129063 572.314135455 609.839795729 495.05986937 Q 406.506462396 417.805603285 260.0 190.982935658" fill="none" marker-end="url(#id18)" marker-mid="url(#id16)" marker-start="url(#id17)" stroke="blue" stroke-linecap="butt" stroke-width="4px" /><path d="M 1073.33333333 500.0 Q 870.0 422.745733915 666.666666667 345.491467829 Q 463.333333333 268.237201744 260.0 190.982935658" fill="none" marker-end="url(#id21)" marker-mid="url(#id19)" marker-start="url(#id20)" stroke="red" stroke-linecap="butt" stroke-width="6px" /><path d="M 744.045299542 885.0 Q 623.033974657 866.004250417 502.022649771 847.008500835 Q 381.011324886 828.012751252 260.0 809.01700167" fill="none" marker-end="url(#id24)" marker-mid="url(#id22)" marker-start="url(#id23)" stroke="red" stroke-linecap="butt" stroke-width="6px" /><path d="M 180.0 794.01700167 Q 180.0 647.008485167 180.0 499.999968664 Q 180.0 352.991452161 180.0 205.982935658" fill="none" marker-end="url(#id27)" marker-mid="url(#id25)" marker-start="url(#id26)" stroke="red" stroke-linecap="butt" stroke-width="6px" /><path d="M 260.0 190.982935658 Q 520.160204271 118.668800203 723.493537604 195.923066288 Q 926.826870937 273.177332374 1073.33333333 500.0" fill="none" marker-end="url(#id30)" marker-mid="url(#id28)" marker-start="url(#id29)" stroke="gray" stroke-linecap="butt" stroke-width="5px" /><path d="M 824.045387405 100.0 Q 932.503884229 -368.028649728 952.503884229 -364.278649728 Q 972.503884229 -360.528649728 904.045387405 115.0" fill="none" marker-end="url(#id33)" marker-mid="url(#id31)" marker-start="url(#id32)" stroke="red" stroke-linecap="butt" stroke-width="11px" /><path d="M 824.045387405 130.0 Q 774.559221797 283.509549909 754.559221797 279.759549909 Q 734.559221797 276.009549909 744.045387405 115.0" fill="none" marker-end="url(#id36)" marker-mid="url(#id34)" marker-start="url(#id35)" stroke="green" stroke-linecap="butt" stroke-width="12px" /></g><g><text font-family="monospace" font-size="20.0" text-anchor="middle" transform="rotate(303.970176274,1161.38188165,789.401807242) translate(0,-10.0)" x="1161.38188165" y="759.401807242"><tspan font-family="monospace" font-size="20.0" font-weight="bold" text-anchor="middle" x="1161.38188165" y="759.401807242">Edge</tspan><tspan font-family="monospace" font-size="20.0" font-weight="normal" text-anchor="middle" x="1161.38188165" y="789.401807242">[0, 1]</tspan></text><text font-family="monospace" font-size="20.0" text-anchor="middle" transform="rotate(303.970176274,1028.68931644,700.0) translate(0,-10.0)" x="1028.68931644" y="670.0"><tspan font-family="monospace" font-size="20.0" font-weight="bold" text-anchor="middle" x="1028.68931644" y="670.0">Edge</tspan><tspan font-family="monospace" font-size="20.0" font-weight="normal" text-anchor="middle" x="1028.68931644" y="700.0">[0, 1]</tspan></text><text font-family="monospace" font-size="20.0" text-anchor="middle" transform="rotate(303.970176274,895.996751229,610.598192758) translate(0,-10.0)" x="895.996751229" y="580.598192758"><tspan font-family="monospace" font-size="20.0" font-weight="bold" text-anchor="middle" x="895.996751229" y="580.598192758">Edge</tspan><tspan font-family="monospace" font-size="20.0" font-weight="normal" text-anchor="middle" x="895.996751229" y="610.598192758">[0, 1]</tspan></text><text font-family="monospace" font-size="20.0" text-anchor="middle" transform="rotate(339.196266269,695.0800971,729.292703518) translate(0,-10.0)" x="695.0800971" y="699.292703518"><tspan font-family="monospace" font-size="20.0" font-weight="bold" text-anchor="middle" x="695.0800971" y="699.292703518">Edge</tspan><tspan font-family="monospace" font-size="20.0" font-weight="normal" text-anchor="middle" x="695.0800971" y="729.292703518">[0, 2]</tspan></text><text font-family="monospace" font-size="20.0" text-anchor="middle" transform="rotate(339.196266269,638.253236234,579.724298151) translate(0,-10.0)" x="638.253236234" y="549.724298151"><tspan font-family="monospace" font-size="20.0" font-weight="bold" text-anchor="middle" x="638.253236234" y="549.724298151">Edge</tspan><tspan font-family="monospace" font-size="20.0" font-weight="normal" text-anchor="middle" x="638.253236234" y="579.724298151">[0, 2]</tspan></text><text font-family="monospace" font-size="20.0" text-anchor="middle" transform="rotate(20.8037375892,609.839795729,495.05986937) translate(0,-10.0)" x="609.839795729" y="465.05986937"><tspan font-family="monospace" font-size="20.0" font-weight="bold" text-anchor="middle" x="609.839795729" y="465.05986937">Edge</tspan><tspan font-family="monospace" font-size="20.0" font-weight="normal" text-anchor="middle" x="609.839795729" y="495.05986937">[0, 3]</tspan></text><text font-family="monospace" font-size="20.0" text-anchor="middle" transform="rotate(20.8037375892,666.666666667,345.491467829) translate(0,-10.0)" x="666.666666667" y="315.491467829"><tspan font-family="monospace" font-size="20.0" font-weight="bold" text-anchor="middle" x="666.666666667" y="315.491467829">Edge</tspan><tspan font-family="monospace" font-size="20.0" font-weight="normal" text-anchor="middle" x="666.666666667" y="345.491467829">[0, 3]</tspan></text><text font-family="monospace" font-size="20.0" text-anchor="middle" transform="rotate(8.92120267169,502.022649771,847.008500835) translate(0,-10.0)" x="502.022649771" y="817.008500835"><tspan font-family="monospace" font-size="20.0" font-weight="bold" text-anchor="middle" x="502.022649771" y="817.008500835">Edge</tspan><tspan font-family="monospace" font-size="20.0" font-weight="normal" text-anchor="middle" x="502.022649771" y="847.008500835">[1, 2]</tspan></text><text font-family="monospace" font-size="20.0" text-anchor="middle" transform="rotate(90.0,180.0,499.999968664) translate(0,-10.0)" x="180.0" y="469.999968664"><tspan font-family="monospace" font-size="20.0" font-weight="bold" text-anchor="middle" x="180.0" y="469.999968664">Edge</tspan><tspan font-family="monospace" font-size="20.0" font-weight="normal" text-anchor="middle" x="180.0" y="499.999968664">[2, 3]</tspan></text><text font-family="monospace" font-size="20.0" text-anchor="middle" transform="rotate(200.803737589,723.493537604,195.923066288) translate(0,-10.0)" x="723.493537604" y="165.923066288"><tspan font-family="monospace" font-size="20.0" font-weight="bold" text-anchor="middle" x="723.493537604" y="165.923066288">Edge</tspan><tspan font-family="monospace" font-size="20.0" font-weight="normal" text-anchor="middle" x="723.493537604" y="195.923066288">[3, 0]</tspan></text><text font-family="monospace" font-size="20.0" text-anchor="middle" transform="rotate(190.619655276,952.503884229,-364.278649728) translate(0,-10.0)" x="952.503884229" y="-394.278649728"><tspan font-family="monospace" font-size="20.0" font-weight="bold" text-anchor="middle" x="952.503884229" y="-394.278649728">Edge</tspan><tspan font-family="monospace" font-size="20.0" font-weight="normal" text-anchor="middle" x="952.503884229" y="-364.278649728">[5, 5]</tspan></text><text font-family="monospace" font-size="20.0" text-anchor="middle" transform="rotate(10.6196552762,754.559221797,279.759549909) translate(0,-10.0)" x="754.559221797" y="249.759549909"><tspan font-family="monospace" font-size="20.0" font-weight="bold" text-anchor="middle" x="754.559221797" y="249.759549909">Edge</tspan><tspan font-family="monospace" font-size="20.0" font-weight="normal" text-anchor="middle" x="754.559221797" y="279.759549909">[5, 5]</tspan></text><text font-family="monospace" font-size="20.0" text-anchor="middle" transform="translate(0,-10.0)" x="1153.33333333" y="515.0"><tspan font-family="monospace" font-size="20.0" font-weight="bold" text-anchor="middle" x="1153.33333333" y="515.0">Node[0]</tspan></text><text font-family="monospace" font-size="20.0" text-anchor="middle" transform="translate(0,-10.0)" x="824.045299542" y="900.0"><tspan font-family="monospace" font-size="20.0" font-weight="bold" text-anchor="middle" x="824.045299542" y="900.0">Node[1]</tspan></text><text font-family="monospace" font-size="20.0" text-anchor="middle" transform="translate(0,-10.0)" x="180.0" y="824.01700167"><tspan font-family="monospace" font-size="20.0" font-weight="bold" text-anchor="middle" x="180.0" y="824.01700167">Node[2]</tspan></text><text font-family="monospace" font-size="20.0" text-anchor="middle" transform="translate(0,-10.0)" x="180.0" y="205.982935658"><tspan font-family="monospace" font-size="20.0" font-weight="bold" text-anchor="middle" x="180.0" y="205.982935658">Node[3]</tspan></text><text font-family="monospace" font-size="20.0" text-anchor="middle" transform="translate(0,-10.0)" x="824.045387405" y="130.0"><tspan font-family="monospace" font-size="20.0" font-weight="bold" text-anchor="middle" x="824.045387405" y="130.0">Node[5]</tspan></text></g></svg>