<svg baseProfile="full" height="400px" version="1.1" viewBox="0,0,1000.0,1000.0" width="400px" xmlns="http://www.w3.org/2000/svg" xmlns:ev="http://www.w3.org/2001/xml-events" xmlns:xlink="http://www.w3.org/1999/xlink"><defs><marker id="id1" markerHeight="20" markerUnits="strokeWidth" markerWidth="20" orient="auto" refX="1.0" refY="0.5" viewBox="0,0,1,1"><polygon fill="black" points="0,0.2 1,0.5 0,0.8" stroke="none" /></marker></defs><g><rect fill="none" height="90.0" rx="20.0" ry="20.0" stroke="black" stroke-width="1px" width="140.0" x="850.0" y="500.0" /><text font-family="monospace" font-size="20.0" text-anchor="middle" x="920.0" y="503.0"><tspan dy="30.0" font-family="monospace" font-size="20.0" font-weight="bold" text-anchor="middle" x="920.0">Node[0]</tspan><tspan dy="30.0" font-family="monospace" font-size="20.0" font-weight="normal" text-anchor="middle" x="920.0">ABCDEF</tspan></text></g><g><rect fill="none" height="90.0" rx="20.0" ry="20.0" stroke="black" stroke-width="1px" width="140.0" x="499.999970198" y="900.0" /><text font-family="monospace" font-size="20.0" text-anchor="middle" x="569.999970198" y="903.0"><tspan dy="30.0" font-family="monospace" font-size="20.0" font-weight="bold" text-anchor="middle" x="569.999970198">Node[1]</tspan><tspan dy="30.0" font-family="monospace" font-size="20.0" font-weight="normal" text-anchor="middle" x="569.999970198">ABCDEF</tspan></text></g><g><rect fill="none" height="90.0" rx="20.0" ry="20.0" stroke="black" stroke-width="1px" width="140.0" x="10.0" y="499.999970198" /><text font-family="monospace" font-size="20.0" text-anchor="middle" x="80.0" y="502.999970198"><tspan dy="30.0" font-family="monospace" font-size="20.0" font-weight="bold" text-anchor="middle" x="80.0">Node[2]</tspan><tspan dy="30.0" font-family="monospace" font-size="20.0" font-weight="normal" text-anchor="middle" x="80.0">ABCDEF</tspan></text></g><g><rect fill="none" height="90.0" rx="20.0" ry="20.0" stroke="black" stroke-width="1px" width="140.0" x="500.0" y="10.0" /><text font-family="monospace" font-size="20.0" text-anchor="middle" x="570.0" y="13.0"><tspan dy="30.0" font-family="monospace" font-size="20.0" font-weight="bold" text-anchor="middle" x="570.0">Node[3]</tspan><tspan dy="30.0" font-family="monospace" font-size="20.0" font-weight="normal" text-anchor="middle" x="570.0">ABCDEF</tspan></text></g><g><path d="M 920.0 590.0 Q 912.813250422 728.292856553 842.813242971 817.042856553 Q 772.813235521 905.792856553 639.999970198 945.0" fill="none" marker-mid="url(#id1)" stroke="black" stroke-width="1px" /><text font-family="monospace" font-size="20.0" text-anchor="middle" transform="rotate(308.263991751,842.813242971,817.042856553) translate(0,-10.0)" x="842.813242971" y="817.042856553">Edge[0, 1]</text></g><g><path d="M 920.0 590.0 Q 849.999992549 678.75 779.999985099 767.5 Q 709.999977648 856.25 639.999970198 945.0" fill="none" marker-mid="url(#id1)" stroke="black" stroke-width="1px" /><text font-family="monospace" font-size="20.0" text-anchor="middle" transform="rotate(308.263991751,779.999985099,767.5) translate(0,-10.0)" x="779.999985099" y="767.5">Edge[0, 1]</text></g><g><path d="M 920.0 590.0 Q 787.186734677 629.207143447 717.186727226 717.957143447 Q 647.186719776 806.707143447 639.999970198 945.0" fill="none" marker-mid="url(#id1)" stroke="black" stroke-width="1px" /><text font-family="monospace" font-size="20.0" text-anchor="middle" transform="rotate(308.263991751,717.186727226,717.957143447) translate(0,-10.0)" x="717.186727226" y="717.957143447">Edge[0, 1]</text></g><g><path d="M 850.0 545.0 Q 674.999998297 584.999992549 499.999998297 584.999985099 Q 324.999998297 584.999977648 150.0 544.999970198" fill="none" marker-mid="url(#id1)" stroke="black" stroke-width="1px" /><text font-family="monospace" font-size="20.0" text-anchor="middle" transform="rotate(2.43935326694e-06,499.999998297,584.999985099) translate(0,-10.0)" x="499.999998297" y="584.999985099">Edge[0, 2]</text></g><g><path d="M 850.0 545.0 Q 675.000001703 504.999992549 500.000001703 504.999985099 Q 325.000001703 504.999977648 150.0 544.999970198" fill="none" marker-mid="url(#id1)" stroke="black" stroke-width="1px" /><text font-family="monospace" font-size="20.0" text-anchor="middle" transform="rotate(2.43935326694e-06,500.000001703,504.999985099) translate(0,-10.0)" x="500.000001703" y="504.999985099">Edge[0, 2]</text></g><g><path d="M 920.0 500.0 Q 772.293864423 452.680368629 684.793864423 352.680368629 Q 597.293864423 252.680368629 570.0 100.0" fill="none" marker-mid="url(#id1)" stroke="black" stroke-width="1px" /><text font-family="monospace" font-size="20.0" text-anchor="middle" transform="rotate(48.8140748343,684.793864423,352.680368629) translate(0,-10.0)" x="684.793864423" y="352.680368629">Edge[0, 3]</text></g><g><path d="M 920.0 500.0 Q 832.5 400.0 745.0 300.0 Q 657.5 200.0 570.0 100.0" fill="none" marker-mid="url(#id1)" stroke="black" stroke-width="1px" /><text font-family="monospace" font-size="20.0" text-anchor="middle" transform="rotate(48.8140748343,745.0,300.0) translate(0,-10.0)" x="745.0" y="300.0">Edge[0, 3]</text></g><g><path d="M 499.999970198 945.0 Q 412.499977648 844.999992549 324.999985099 744.999985099 Q 237.499992549 644.999977648 150.0 544.999970198" fill="none" marker-mid="url(#id1)" stroke="black" stroke-width="1px" /><text font-family="monospace" font-size="20.0" text-anchor="middle" transform="rotate(48.8140793676,324.999985099,744.999985099) translate(0,-10.0)" x="324.999985099" y="744.999985099">Edge[1, 2]</text></g><g><path d="M 150.0 544.999970198 Q 255.0 433.749977648 360.0 322.499985099 Q 465.0 211.249992549 570.0 100.0" fill="none" marker-mid="url(#id1)" stroke="black" stroke-width="1px" /><text font-family="monospace" font-size="20.0" text-anchor="middle" transform="rotate(133.344515376,360.0,322.499985099) translate(0,-10.0)" x="360.0" y="322.499985099">Edge[2, 3]</text></g><g><path d="M 570.0 100.0 Q 717.706135577 147.319631371 805.206135577 247.319631371 Q 892.706135577 347.319631371 920.0 500.0" fill="none" marker-mid="url(#id1)" stroke="black" stroke-width="1px" /><text font-family="monospace" font-size="20.0" text-anchor="middle" transform="rotate(228.814074834,805.206135577,247.319631371) translate(0,-10.0)" x="805.206135577" y="247.319631371">Edge[3, 0]</text></g></svg>
