<?xml version="1.0" encoding="utf-8" standalone="no"?>
<!DOCTYPE svg PUBLIC "-//W3C//DTD SVG 1.1//EN"
  "http://www.w3.org/Graphics/SVG/1.1/DTD/svg11.dtd">
<!-- Created with matplotlib (http://matplotlib.org/) -->
<svg height="648pt" version="1.1" viewBox="0 0 648 648" width="648pt" xmlns="http://www.w3.org/2000/svg" xmlns:xlink="http://www.w3.org/1999/xlink">
 <defs>
  <style type="text/css">
*{stroke-linecap:butt;stroke-linejoin:round;}
  </style>
 </defs>
 <g id="figure_1">
  <g id="patch_1">
   <path d="
M0 648
L648 648
L648 0
L0 0
z
" style="fill:#ffffff;"/>
  </g>
  <g id="axes_1">
   <g id="LineCollection_1">
    <defs>
     <path d="
M518.4 -324
L339.297 -118.572" id="C0_0_a0a48ed28f"/>
     <path d="
M518.4 -324
L339.297 -118.572" id="C0_1_a0a48ed28f"/>
     <path d="
M518.4 -324
L339.297 -118.572" id="C0_2_a0a48ed28f"/>
     <path d="
M518.4 -324
L49.5028 -197.038" id="C0_3_2dab8569ca"/>
     <path d="
M518.4 -324
L49.5028 -197.038" id="C0_4_2dab8569ca"/>
     <path d="
M518.4 -324
L49.5028 -450.962" id="C0_5_4576fe009a"/>
     <path d="
M518.4 -324
L49.5028 -450.962" id="C0_6_4576fe009a"/>
     <path d="
M339.297 -118.572
L49.5028 -197.038" id="C0_7_3b281745c6"/>
     <path d="
M49.5028 -197.038
L49.5028 -450.962" id="C0_8_2d8afcf9bb"/>
     <path d="
M49.5028 -450.962
L518.4 -324" id="C0_9_6f0788f527"/>
     <path d="
M339.297 -529.428
L339.297 -529.428" id="C0_a_7d1af907d7"/>
    </defs>
    <g clip-path="url(#pbd0793f99d)">
     <use style="fill:none;stroke:#000000;" x="0.0" xlink:href="#C0_0_a0a48ed28f" y="648.0"/>
    </g>
    <g clip-path="url(#pbd0793f99d)">
     <use style="fill:none;stroke:#000000;" x="0.0" xlink:href="#C0_1_a0a48ed28f" y="648.0"/>
    </g>
    <g clip-path="url(#pbd0793f99d)">
     <use style="fill:none;stroke:#000000;" x="0.0" xlink:href="#C0_2_a0a48ed28f" y="648.0"/>
    </g>
    <g clip-path="url(#pbd0793f99d)">
     <use style="fill:none;stroke:#000000;" x="0.0" xlink:href="#C0_3_2dab8569ca" y="648.0"/>
    </g>
    <g clip-path="url(#pbd0793f99d)">
     <use style="fill:none;stroke:#000000;" x="0.0" xlink:href="#C0_4_2dab8569ca" y="648.0"/>
    </g>
    <g clip-path="url(#pbd0793f99d)">
     <use style="fill:none;stroke:#000000;" x="0.0" xlink:href="#C0_5_4576fe009a" y="648.0"/>
    </g>
    <g clip-path="url(#pbd0793f99d)">
     <use style="fill:none;stroke:#000000;" x="0.0" xlink:href="#C0_6_4576fe009a" y="648.0"/>
    </g>
    <g clip-path="url(#pbd0793f99d)">
     <use style="fill:none;stroke:#000000;" x="0.0" xlink:href="#C0_7_3b281745c6" y="648.0"/>
    </g>
    <g clip-path="url(#pbd0793f99d)">
     <use style="fill:none;stroke:#000000;" x="0.0" xlink:href="#C0_8_2d8afcf9bb" y="648.0"/>
    </g>
    <g clip-path="url(#pbd0793f99d)">
     <use style="fill:none;stroke:#000000;" x="0.0" xlink:href="#C0_9_6f0788f527" y="648.0"/>
    </g>
    <g clip-path="url(#pbd0793f99d)">
     <use style="fill:none;stroke:#000000;" x="0.0" xlink:href="#C0_a_7d1af907d7" y="648.0"/>
    </g>
   </g>
   <g id="LineCollection_2">
    <defs>
     <path d="
M384.073 -169.929
L339.297 -118.572" id="C1_0_689a1623b0"/>
     <path d="
M384.073 -169.929
L339.297 -118.572" id="C1_1_689a1623b0"/>
     <path d="
M384.073 -169.929
L339.297 -118.572" id="C1_2_689a1623b0"/>
     <path d="
M166.727 -228.779
L49.5028 -197.038" id="C1_3_8322fbd4c8"/>
     <path d="
M166.727 -228.779
L49.5028 -197.038" id="C1_4_8322fbd4c8"/>
     <path d="
M166.727 -419.221
L49.5028 -450.962" id="C1_5_b9f189ad45"/>
     <path d="
M166.727 -419.221
L49.5028 -450.962" id="C1_6_b9f189ad45"/>
     <path d="
M121.951 -177.422
L49.5028 -197.038" id="C1_7_2f76526179"/>
     <path d="
M49.5028 -387.481
L49.5028 -450.962" id="C1_8_17f612599b"/>
     <path d="
M401.176 -355.74
L518.4 -324" id="C1_9_4b528e106e"/>
    </defs>
    <g clip-path="url(#pbd0793f99d)">
     <use style="fill:none;stroke:#000000;stroke-width:4.0;" x="0.0" xlink:href="#C1_0_689a1623b0" y="648.0"/>
    </g>
    <g clip-path="url(#pbd0793f99d)">
     <use style="fill:none;stroke:#000000;stroke-width:4.0;" x="0.0" xlink:href="#C1_1_689a1623b0" y="648.0"/>
    </g>
    <g clip-path="url(#pbd0793f99d)">
     <use style="fill:none;stroke:#000000;stroke-width:4.0;" x="0.0" xlink:href="#C1_2_689a1623b0" y="648.0"/>
    </g>
    <g clip-path="url(#pbd0793f99d)">
     <use style="fill:none;stroke:#000000;stroke-width:4.0;" x="0.0" xlink:href="#C1_3_8322fbd4c8" y="648.0"/>
    </g>
    <g clip-path="url(#pbd0793f99d)">
     <use style="fill:none;stroke:#000000;stroke-width:4.0;" x="0.0" xlink:href="#C1_4_8322fbd4c8" y="648.0"/>
    </g>
    <g clip-path="url(#pbd0793f99d)">
     <use style="fill:none;stroke:#000000;stroke-width:4.0;" x="0.0" xlink:href="#C1_5_b9f189ad45" y="648.0"/>
    </g>
    <g clip-path="url(#pbd0793f99d)">
     <use style="fill:none;stroke:#000000;stroke-width:4.0;" x="0.0" xlink:href="#C1_6_b9f189ad45" y="648.0"/>
    </g>
    <g clip-path="url(#pbd0793f99d)">
     <use style="fill:none;stroke:#000000;stroke-width:4.0;" x="0.0" xlink:href="#C1_7_2f76526179" y="648.0"/>
    </g>
    <g clip-path="url(#pbd0793f99d)">
     <use style="fill:none;stroke:#000000;stroke-width:4.0;" x="0.0" xlink:href="#C1_8_17f612599b" y="648.0"/>
    </g>
    <g clip-path="url(#pbd0793f99d)">
     <use style="fill:none;stroke:#000000;stroke-width:4.0;" x="0.0" xlink:href="#C1_9_4b528e106e" y="648.0"/>
    </g>
   </g>
   <g id="text_1">
    <g id="patch_2">
     <path d="
M402.008 469.428
L467.506 394.303
Q469.478 392.042 467.217 390.07
L459.922 383.71
Q457.66 381.739 455.689 384
L390.191 459.125
Q388.219 461.387 390.481 463.358
L397.775 469.718
Q400.037 471.69 402.008 469.428
z
" style="fill:#ffffff;stroke:#ffffff;"/>
    </g>
    <g clip-path="url(#pbd0793f99d)">
     <!-- ('Edge[0, 1]:{}', {}) -->
     <defs>
      <path id="BitstreamVeraSans-Roman-20"/>
      <path d="
M8.59375 75.9844
L29.2969 75.9844
L29.2969 69
L17.5781 69
L17.5781 -6.20312
L29.2969 -6.20312
L29.2969 -13.1875
L8.59375 -13.1875
z
" id="BitstreamVeraSans-Roman-5b"/>
      <path d="
M12.4062 8.29688
L28.5156 8.29688
L28.5156 63.9219
L10.9844 60.4062
L10.9844 69.3906
L28.4219 72.9062
L38.2812 72.9062
L38.2812 8.29688
L54.3906 8.29688
L54.3906 0
L12.4062 0
z
" id="BitstreamVeraSans-Roman-31"/>
      <path d="
M30.4219 75.9844
L30.4219 -13.1875
L9.71875 -13.1875
L9.71875 -6.20312
L21.3906 -6.20312
L21.3906 69
L9.71875 69
L9.71875 75.9844
z
" id="BitstreamVeraSans-Roman-5d"/>
      <path d="
M17.9219 72.9062
L17.9219 45.7969
L9.625 45.7969
L9.625 72.9062
z
" id="BitstreamVeraSans-Roman-27"/>
      <path d="
M11.7188 12.4062
L22.0156 12.4062
L22.0156 4
L14.0156 -11.625
L7.71875 -11.625
L11.7188 4
z
" id="BitstreamVeraSans-Roman-2c"/>
      <path d="
M31 75.875
Q24.4688 64.6562 21.2812 53.6562
Q18.1094 42.6719 18.1094 31.3906
Q18.1094 20.125 21.3125 9.0625
Q24.5156 -2 31 -13.1875
L23.1875 -13.1875
Q15.875 -1.70312 12.2344 9.375
Q8.59375 20.4531 8.59375 31.3906
Q8.59375 42.2812 12.2031 53.3125
Q15.8281 64.3594 23.1875 75.875
z
" id="BitstreamVeraSans-Roman-28"/>
      <path d="
M12.5 -9.28125
L15.9219 -9.28125
Q22.75 -9.28125 24.8281 -7.17188
Q26.9062 -5.07812 26.9062 1.90625
L26.9062 14.0156
Q26.9062 21.625 29.0938 25.0938
Q31.2969 28.5625 36.7188 29.8906
Q31.2969 31.1094 29.0938 34.5625
Q26.9062 38.0312 26.9062 45.7031
L26.9062 57.8125
Q26.9062 64.75 24.8281 66.875
Q22.75 69 15.9219 69
L12.5 69
L12.5 75.9844
L15.5781 75.9844
Q27.7344 75.9844 31.8125 72.3906
Q35.8906 68.7969 35.8906 58.0156
L35.8906 46.2969
Q35.8906 39.0156 38.5156 36.2031
Q41.1562 33.4062 48.0938 33.4062
L51.125 33.4062
L51.125 26.4219
L48.0938 26.4219
Q41.1562 26.4219 38.5156 23.5781
Q35.8906 20.75 35.8906 13.375
L35.8906 1.70312
Q35.8906 -9.07812 31.8125 -12.6875
Q27.7344 -16.3125 15.5781 -16.3125
L12.5 -16.3125
z
" id="BitstreamVeraSans-Roman-7d"/>
      <path d="
M51.125 -9.28125
L51.125 -16.3125
L48.0938 -16.3125
Q35.9375 -16.3125 31.8125 -12.6875
Q27.6875 -9.07812 27.6875 1.70312
L27.6875 13.375
Q27.6875 20.75 25.0469 23.5781
Q22.4062 26.4219 15.4844 26.4219
L12.5 26.4219
L12.5 33.4062
L15.4844 33.4062
Q22.4688 33.4062 25.0781 36.2031
Q27.6875 39.0156 27.6875 46.2969
L27.6875 58.0156
Q27.6875 68.7969 31.8125 72.3906
Q35.9375 75.9844 48.0938 75.9844
L51.125 75.9844
L51.125 69
L47.7969 69
Q40.9219 69 38.8125 66.8438
Q36.7188 64.7031 36.7188 57.8125
L36.7188 45.7031
Q36.7188 38.0312 34.5 34.5625
Q32.2812 31.1094 26.9062 29.8906
Q32.3281 28.5625 34.5156 25.0938
Q36.7188 21.625 36.7188 14.0156
L36.7188 1.90625
Q36.7188 -4.98438 38.8125 -7.125
Q40.9219 -9.28125 47.7969 -9.28125
z
" id="BitstreamVeraSans-Roman-7b"/>
      <path d="
M31.7812 66.4062
Q24.1719 66.4062 20.3281 58.9062
Q16.5 51.4219 16.5 36.375
Q16.5 21.3906 20.3281 13.8906
Q24.1719 6.39062 31.7812 6.39062
Q39.4531 6.39062 43.2812 13.8906
Q47.125 21.3906 47.125 36.375
Q47.125 51.4219 43.2812 58.9062
Q39.4531 66.4062 31.7812 66.4062
M31.7812 74.2188
Q44.0469 74.2188 50.5156 64.5156
Q56.9844 54.8281 56.9844 36.375
Q56.9844 17.9688 50.5156 8.26562
Q44.0469 -1.42188 31.7812 -1.42188
Q19.5312 -1.42188 13.0625 8.26562
Q6.59375 17.9688 6.59375 36.375
Q6.59375 54.8281 13.0625 64.5156
Q19.5312 74.2188 31.7812 74.2188" id="BitstreamVeraSans-Roman-30"/>
      <path d="
M8.01562 75.875
L15.8281 75.875
Q23.1406 64.3594 26.7812 53.3125
Q30.4219 42.2812 30.4219 31.3906
Q30.4219 20.4531 26.7812 9.375
Q23.1406 -1.70312 15.8281 -13.1875
L8.01562 -13.1875
Q14.5 -2 17.7031 9.0625
Q20.9062 20.125 20.9062 31.3906
Q20.9062 42.6719 17.7031 53.6562
Q14.5 64.6562 8.01562 75.875" id="BitstreamVeraSans-Roman-29"/>
      <path d="
M9.8125 72.9062
L55.9062 72.9062
L55.9062 64.5938
L19.6719 64.5938
L19.6719 43.0156
L54.3906 43.0156
L54.3906 34.7188
L19.6719 34.7188
L19.6719 8.29688
L56.7812 8.29688
L56.7812 0
L9.8125 0
z
" id="BitstreamVeraSans-Roman-45"/>
      <path d="
M11.7188 12.4062
L22.0156 12.4062
L22.0156 0
L11.7188 0
z

M11.7188 51.7031
L22.0156 51.7031
L22.0156 39.3125
L11.7188 39.3125
z
" id="BitstreamVeraSans-Roman-3a"/>
      <path d="
M56.2031 29.5938
L56.2031 25.2031
L14.8906 25.2031
Q15.4844 15.9219 20.4844 11.0625
Q25.4844 6.20312 34.4219 6.20312
Q39.5938 6.20312 44.4531 7.46875
Q49.3125 8.73438 54.1094 11.2812
L54.1094 2.78125
Q49.2656 0.734375 44.1875 -0.34375
Q39.1094 -1.42188 33.8906 -1.42188
Q20.7969 -1.42188 13.1562 6.1875
Q5.51562 13.8125 5.51562 26.8125
Q5.51562 40.2344 12.7656 48.1094
Q20.0156 56 32.3281 56
Q43.3594 56 49.7812 48.8906
Q56.2031 41.7969 56.2031 29.5938
M47.2188 32.2344
Q47.125 39.5938 43.0938 43.9844
Q39.0625 48.3906 32.4219 48.3906
Q24.9062 48.3906 20.3906 44.1406
Q15.875 39.8906 15.1875 32.1719
z
" id="BitstreamVeraSans-Roman-65"/>
      <path d="
M45.4062 46.3906
L45.4062 75.9844
L54.3906 75.9844
L54.3906 0
L45.4062 0
L45.4062 8.20312
Q42.5781 3.32812 38.25 0.953125
Q33.9375 -1.42188 27.875 -1.42188
Q17.9688 -1.42188 11.7344 6.48438
Q5.51562 14.4062 5.51562 27.2969
Q5.51562 40.1875 11.7344 48.0938
Q17.9688 56 27.875 56
Q33.9375 56 38.25 53.625
Q42.5781 51.2656 45.4062 46.3906
M14.7969 27.2969
Q14.7969 17.3906 18.875 11.75
Q22.9531 6.10938 30.0781 6.10938
Q37.2031 6.10938 41.2969 11.75
Q45.4062 17.3906 45.4062 27.2969
Q45.4062 37.2031 41.2969 42.8438
Q37.2031 48.4844 30.0781 48.4844
Q22.9531 48.4844 18.875 42.8438
Q14.7969 37.2031 14.7969 27.2969" id="BitstreamVeraSans-Roman-64"/>
      <path d="
M45.4062 27.9844
Q45.4062 37.75 41.375 43.1094
Q37.3594 48.4844 30.0781 48.4844
Q22.8594 48.4844 18.8281 43.1094
Q14.7969 37.75 14.7969 27.9844
Q14.7969 18.2656 18.8281 12.8906
Q22.8594 7.51562 30.0781 7.51562
Q37.3594 7.51562 41.375 12.8906
Q45.4062 18.2656 45.4062 27.9844
M54.3906 6.78125
Q54.3906 -7.17188 48.1875 -13.9844
Q42 -20.7969 29.2031 -20.7969
Q24.4688 -20.7969 20.2656 -20.0938
Q16.0625 -19.3906 12.1094 -17.9219
L12.1094 -9.1875
Q16.0625 -11.3281 19.9219 -12.3438
Q23.7812 -13.375 27.7812 -13.375
Q36.625 -13.375 41.0156 -8.76562
Q45.4062 -4.15625 45.4062 5.17188
L45.4062 9.625
Q42.625 4.78125 38.2812 2.39062
Q33.9375 0 27.875 0
Q17.8281 0 11.6719 7.65625
Q5.51562 15.3281 5.51562 27.9844
Q5.51562 40.6719 11.6719 48.3281
Q17.8281 56 27.875 56
Q33.9375 56 38.2812 53.6094
Q42.625 51.2188 45.4062 46.3906
L45.4062 54.6875
L54.3906 54.6875
z
" id="BitstreamVeraSans-Roman-67"/>
     </defs>
     <g transform="translate(398.179365216 466.090204908)rotate(-48.9164240892)scale(0.1 -0.1)">
      <use xlink:href="#BitstreamVeraSans-Roman-28"/>
      <use x="39.013671875" xlink:href="#BitstreamVeraSans-Roman-27"/>
      <use x="66.50390625" xlink:href="#BitstreamVeraSans-Roman-45"/>
      <use x="129.6875" xlink:href="#BitstreamVeraSans-Roman-64"/>
      <use x="193.1640625" xlink:href="#BitstreamVeraSans-Roman-67"/>
      <use x="256.640625" xlink:href="#BitstreamVeraSans-Roman-65"/>
      <use x="318.1640625" xlink:href="#BitstreamVeraSans-Roman-5b"/>
      <use x="357.177734375" xlink:href="#BitstreamVeraSans-Roman-30"/>
      <use x="420.80078125" xlink:href="#BitstreamVeraSans-Roman-2c"/>
      <use x="452.587890625" xlink:href="#BitstreamVeraSans-Roman-20"/>
      <use x="484.375" xlink:href="#BitstreamVeraSans-Roman-31"/>
      <use x="547.998046875" xlink:href="#BitstreamVeraSans-Roman-5d"/>
      <use x="587.01171875" xlink:href="#BitstreamVeraSans-Roman-3a"/>
      <use x="620.703125" xlink:href="#BitstreamVeraSans-Roman-7b"/>
      <use x="684.326171875" xlink:href="#BitstreamVeraSans-Roman-7d"/>
      <use x="747.94921875" xlink:href="#BitstreamVeraSans-Roman-27"/>
      <use x="775.439453125" xlink:href="#BitstreamVeraSans-Roman-2c"/>
      <use x="807.2265625" xlink:href="#BitstreamVeraSans-Roman-20"/>
      <use x="839.013671875" xlink:href="#BitstreamVeraSans-Roman-7b"/>
      <use x="902.63671875" xlink:href="#BitstreamVeraSans-Roman-7d"/>
      <use x="966.259765625" xlink:href="#BitstreamVeraSans-Roman-29"/>
     </g>
    </g>
   </g>
   <g id="text_2">
    <g id="patch_3">
     <path d="
M144.249 484.737
L240.453 510.786
Q243.349 511.57 244.133 508.674
L246.663 499.333
Q247.447 496.437 244.551 495.653
L148.347 469.604
Q145.451 468.82 144.667 471.715
L142.137 481.057
Q141.353 483.953 144.249 484.737
z
" style="fill:#ffffff;stroke:#ffffff;"/>
    </g>
    <g clip-path="url(#pbd0793f99d)">
     <!-- ('Edge[1, 2]:{}', {}) -->
     <defs>
      <path d="
M19.1875 8.29688
L53.6094 8.29688
L53.6094 0
L7.32812 0
L7.32812 8.29688
Q12.9375 14.1094 22.625 23.8906
Q32.3281 33.6875 34.8125 36.5312
Q39.5469 41.8438 41.4219 45.5312
Q43.3125 49.2188 43.3125 52.7812
Q43.3125 58.5938 39.2344 62.25
Q35.1562 65.9219 28.6094 65.9219
Q23.9688 65.9219 18.8125 64.3125
Q13.6719 62.7031 7.8125 59.4219
L7.8125 69.3906
Q13.7656 71.7812 18.9375 73
Q24.125 74.2188 28.4219 74.2188
Q39.75 74.2188 46.4844 68.5469
Q53.2188 62.8906 53.2188 53.4219
Q53.2188 48.9219 51.5312 44.8906
Q49.8594 40.875 45.4062 35.4062
Q44.1875 33.9844 37.6406 27.2188
Q31.1094 20.4531 19.1875 8.29688" id="BitstreamVeraSans-Roman-32"/>
     </defs>
     <g transform="translate(145.576546387 479.833893217)rotate(-344.849502216)scale(0.1 -0.1)">
      <use xlink:href="#BitstreamVeraSans-Roman-28"/>
      <use x="39.013671875" xlink:href="#BitstreamVeraSans-Roman-27"/>
      <use x="66.50390625" xlink:href="#BitstreamVeraSans-Roman-45"/>
      <use x="129.6875" xlink:href="#BitstreamVeraSans-Roman-64"/>
      <use x="193.1640625" xlink:href="#BitstreamVeraSans-Roman-67"/>
      <use x="256.640625" xlink:href="#BitstreamVeraSans-Roman-65"/>
      <use x="318.1640625" xlink:href="#BitstreamVeraSans-Roman-5b"/>
      <use x="357.177734375" xlink:href="#BitstreamVeraSans-Roman-31"/>
      <use x="420.80078125" xlink:href="#BitstreamVeraSans-Roman-2c"/>
      <use x="452.587890625" xlink:href="#BitstreamVeraSans-Roman-20"/>
      <use x="484.375" xlink:href="#BitstreamVeraSans-Roman-32"/>
      <use x="547.998046875" xlink:href="#BitstreamVeraSans-Roman-5d"/>
      <use x="587.01171875" xlink:href="#BitstreamVeraSans-Roman-3a"/>
      <use x="620.703125" xlink:href="#BitstreamVeraSans-Roman-7b"/>
      <use x="684.326171875" xlink:href="#BitstreamVeraSans-Roman-7d"/>
      <use x="747.94921875" xlink:href="#BitstreamVeraSans-Roman-27"/>
      <use x="775.439453125" xlink:href="#BitstreamVeraSans-Roman-2c"/>
      <use x="807.2265625" xlink:href="#BitstreamVeraSans-Roman-20"/>
      <use x="839.013671875" xlink:href="#BitstreamVeraSans-Roman-7b"/>
      <use x="902.63671875" xlink:href="#BitstreamVeraSans-Roman-7d"/>
      <use x="966.259765625" xlink:href="#BitstreamVeraSans-Roman-29"/>
     </g>
    </g>
   </g>
   <g id="text_3">
    <g id="patch_4">
     <path d="
M289.463 126.411
L389.132 126.411
Q392.132 126.411 392.132 123.411
L392.132 113.733
Q392.132 110.733 389.132 110.733
L289.463 110.733
Q286.463 110.733 286.463 113.733
L286.463 123.411
Q286.463 126.411 289.463 126.411
z
" style="fill:#ffffff;stroke:#ffffff;"/>
    </g>
    <g clip-path="url(#pbd0793f99d)">
     <!-- ('Edge[5, 5]:{}', {}) -->
     <defs>
      <path d="
M10.7969 72.9062
L49.5156 72.9062
L49.5156 64.5938
L19.8281 64.5938
L19.8281 46.7344
Q21.9688 47.4688 24.1094 47.8281
Q26.2656 48.1875 28.4219 48.1875
Q40.625 48.1875 47.75 41.5
Q54.8906 34.8125 54.8906 23.3906
Q54.8906 11.625 47.5625 5.09375
Q40.2344 -1.42188 26.9062 -1.42188
Q22.3125 -1.42188 17.5469 -0.640625
Q12.7969 0.140625 7.71875 1.70312
L7.71875 11.625
Q12.1094 9.23438 16.7969 8.0625
Q21.4844 6.89062 26.7031 6.89062
Q35.1562 6.89062 40.0781 11.3281
Q45.0156 15.7656 45.0156 23.3906
Q45.0156 31 40.0781 35.4375
Q35.1562 39.8906 26.7031 39.8906
Q22.75 39.8906 18.8125 39.0156
Q14.8906 38.1406 10.7969 36.2812
z
" id="BitstreamVeraSans-Roman-35"/>
     </defs>
     <g transform="translate(289.462862968 121.331175232)scale(0.1 -0.1)">
      <use xlink:href="#BitstreamVeraSans-Roman-28"/>
      <use x="39.013671875" xlink:href="#BitstreamVeraSans-Roman-27"/>
      <use x="66.50390625" xlink:href="#BitstreamVeraSans-Roman-45"/>
      <use x="129.6875" xlink:href="#BitstreamVeraSans-Roman-64"/>
      <use x="193.1640625" xlink:href="#BitstreamVeraSans-Roman-67"/>
      <use x="256.640625" xlink:href="#BitstreamVeraSans-Roman-65"/>
      <use x="318.1640625" xlink:href="#BitstreamVeraSans-Roman-5b"/>
      <use x="357.177734375" xlink:href="#BitstreamVeraSans-Roman-35"/>
      <use x="420.80078125" xlink:href="#BitstreamVeraSans-Roman-2c"/>
      <use x="452.587890625" xlink:href="#BitstreamVeraSans-Roman-20"/>
      <use x="484.375" xlink:href="#BitstreamVeraSans-Roman-35"/>
      <use x="547.998046875" xlink:href="#BitstreamVeraSans-Roman-5d"/>
      <use x="587.01171875" xlink:href="#BitstreamVeraSans-Roman-3a"/>
      <use x="620.703125" xlink:href="#BitstreamVeraSans-Roman-7b"/>
      <use x="684.326171875" xlink:href="#BitstreamVeraSans-Roman-7d"/>
      <use x="747.94921875" xlink:href="#BitstreamVeraSans-Roman-27"/>
      <use x="775.439453125" xlink:href="#BitstreamVeraSans-Roman-2c"/>
      <use x="807.2265625" xlink:href="#BitstreamVeraSans-Roman-20"/>
      <use x="839.013671875" xlink:href="#BitstreamVeraSans-Roman-7b"/>
      <use x="902.63671875" xlink:href="#BitstreamVeraSans-Roman-7d"/>
      <use x="966.259765625" xlink:href="#BitstreamVeraSans-Roman-29"/>
     </g>
    </g>
   </g>
   <g id="text_4">
    <g id="patch_5">
     <path d="
M233.8 255.061
L330.005 281.11
Q332.901 281.894 333.685 278.999
L336.214 269.657
Q336.998 266.761 334.102 265.977
L237.898 239.928
Q235.002 239.144 234.218 242.04
L231.689 251.382
Q230.905 254.277 233.8 255.061
z
" style="fill:#ffffff;stroke:#ffffff;"/>
    </g>
    <g clip-path="url(#pbd0793f99d)">
     <!-- ('Edge[3, 0]:{}', {}) -->
     <defs>
      <path d="
M40.5781 39.3125
Q47.6562 37.7969 51.625 33
Q55.6094 28.2188 55.6094 21.1875
Q55.6094 10.4062 48.1875 4.48438
Q40.7656 -1.42188 27.0938 -1.42188
Q22.5156 -1.42188 17.6562 -0.515625
Q12.7969 0.390625 7.625 2.20312
L7.625 11.7188
Q11.7188 9.32812 16.5938 8.10938
Q21.4844 6.89062 26.8125 6.89062
Q36.0781 6.89062 40.9375 10.5469
Q45.7969 14.2031 45.7969 21.1875
Q45.7969 27.6406 41.2812 31.2656
Q36.7656 34.9062 28.7188 34.9062
L20.2188 34.9062
L20.2188 43.0156
L29.1094 43.0156
Q36.375 43.0156 40.2344 45.9219
Q44.0938 48.8281 44.0938 54.2969
Q44.0938 59.9062 40.1094 62.9062
Q36.1406 65.9219 28.7188 65.9219
Q24.6562 65.9219 20.0156 65.0312
Q15.375 64.1562 9.8125 62.3125
L9.8125 71.0938
Q15.4375 72.6562 20.3438 73.4375
Q25.25 74.2188 29.5938 74.2188
Q40.8281 74.2188 47.3594 69.1094
Q53.9062 64.0156 53.9062 55.3281
Q53.9062 49.2656 50.4375 45.0938
Q46.9688 40.9219 40.5781 39.3125" id="BitstreamVeraSans-Roman-33"/>
     </defs>
     <g transform="translate(235.127962411 250.158166591)rotate(-344.849500848)scale(0.1 -0.1)">
      <use xlink:href="#BitstreamVeraSans-Roman-28"/>
      <use x="39.013671875" xlink:href="#BitstreamVeraSans-Roman-27"/>
      <use x="66.50390625" xlink:href="#BitstreamVeraSans-Roman-45"/>
      <use x="129.6875" xlink:href="#BitstreamVeraSans-Roman-64"/>
      <use x="193.1640625" xlink:href="#BitstreamVeraSans-Roman-67"/>
      <use x="256.640625" xlink:href="#BitstreamVeraSans-Roman-65"/>
      <use x="318.1640625" xlink:href="#BitstreamVeraSans-Roman-5b"/>
      <use x="357.177734375" xlink:href="#BitstreamVeraSans-Roman-33"/>
      <use x="420.80078125" xlink:href="#BitstreamVeraSans-Roman-2c"/>
      <use x="452.587890625" xlink:href="#BitstreamVeraSans-Roman-20"/>
      <use x="484.375" xlink:href="#BitstreamVeraSans-Roman-30"/>
      <use x="547.998046875" xlink:href="#BitstreamVeraSans-Roman-5d"/>
      <use x="587.01171875" xlink:href="#BitstreamVeraSans-Roman-3a"/>
      <use x="620.703125" xlink:href="#BitstreamVeraSans-Roman-7b"/>
      <use x="684.326171875" xlink:href="#BitstreamVeraSans-Roman-7d"/>
      <use x="747.94921875" xlink:href="#BitstreamVeraSans-Roman-27"/>
      <use x="775.439453125" xlink:href="#BitstreamVeraSans-Roman-2c"/>
      <use x="807.2265625" xlink:href="#BitstreamVeraSans-Roman-20"/>
      <use x="839.013671875" xlink:href="#BitstreamVeraSans-Roman-7b"/>
      <use x="902.63671875" xlink:href="#BitstreamVeraSans-Roman-7d"/>
      <use x="966.259765625" xlink:href="#BitstreamVeraSans-Roman-29"/>
     </g>
    </g>
   </g>
   <g id="text_5">
    <g id="patch_6">
     <path d="
M57.3419 373.834
L57.3419 274.166
Q57.3419 271.166 54.3419 271.166
L44.6637 271.166
Q41.6637 271.166 41.6637 274.166
L41.6637 373.834
Q41.6637 376.834 44.6637 376.834
L54.3419 376.834
Q57.3419 376.834 57.3419 373.834
z
" style="fill:#ffffff;stroke:#ffffff;"/>
    </g>
    <g clip-path="url(#pbd0793f99d)">
     <!-- ('Edge[2, 3]:{}', {}) -->
     <g transform="translate(52.2621634159 373.834355938)rotate(-89.9999948093)scale(0.1 -0.1)">
      <use xlink:href="#BitstreamVeraSans-Roman-28"/>
      <use x="39.013671875" xlink:href="#BitstreamVeraSans-Roman-27"/>
      <use x="66.50390625" xlink:href="#BitstreamVeraSans-Roman-45"/>
      <use x="129.6875" xlink:href="#BitstreamVeraSans-Roman-64"/>
      <use x="193.1640625" xlink:href="#BitstreamVeraSans-Roman-67"/>
      <use x="256.640625" xlink:href="#BitstreamVeraSans-Roman-65"/>
      <use x="318.1640625" xlink:href="#BitstreamVeraSans-Roman-5b"/>
      <use x="357.177734375" xlink:href="#BitstreamVeraSans-Roman-32"/>
      <use x="420.80078125" xlink:href="#BitstreamVeraSans-Roman-2c"/>
      <use x="452.587890625" xlink:href="#BitstreamVeraSans-Roman-20"/>
      <use x="484.375" xlink:href="#BitstreamVeraSans-Roman-33"/>
      <use x="547.998046875" xlink:href="#BitstreamVeraSans-Roman-5d"/>
      <use x="587.01171875" xlink:href="#BitstreamVeraSans-Roman-3a"/>
      <use x="620.703125" xlink:href="#BitstreamVeraSans-Roman-7b"/>
      <use x="684.326171875" xlink:href="#BitstreamVeraSans-Roman-7d"/>
      <use x="747.94921875" xlink:href="#BitstreamVeraSans-Roman-27"/>
      <use x="775.439453125" xlink:href="#BitstreamVeraSans-Roman-2c"/>
      <use x="807.2265625" xlink:href="#BitstreamVeraSans-Roman-20"/>
      <use x="839.013671875" xlink:href="#BitstreamVeraSans-Roman-7b"/>
      <use x="902.63671875" xlink:href="#BitstreamVeraSans-Roman-7d"/>
      <use x="966.259765625" xlink:href="#BitstreamVeraSans-Roman-29"/>
     </g>
    </g>
   </g>
   <g id="text_6">
    <g id="patch_7">
     <path d="
M233.8 255.061
L330.005 281.11
Q332.901 281.894 333.685 278.999
L336.214 269.657
Q336.998 266.761 334.102 265.977
L237.898 239.928
Q235.002 239.144 234.218 242.04
L231.689 251.382
Q230.905 254.277 233.8 255.061
z
" style="fill:#ffffff;stroke:#ffffff;"/>
    </g>
    <g clip-path="url(#pbd0793f99d)">
     <!-- ('Edge[0, 3]:{}', {}) -->
     <g transform="translate(235.127962164 250.158167756)rotate(-344.849502216)scale(0.1 -0.1)">
      <use xlink:href="#BitstreamVeraSans-Roman-28"/>
      <use x="39.013671875" xlink:href="#BitstreamVeraSans-Roman-27"/>
      <use x="66.50390625" xlink:href="#BitstreamVeraSans-Roman-45"/>
      <use x="129.6875" xlink:href="#BitstreamVeraSans-Roman-64"/>
      <use x="193.1640625" xlink:href="#BitstreamVeraSans-Roman-67"/>
      <use x="256.640625" xlink:href="#BitstreamVeraSans-Roman-65"/>
      <use x="318.1640625" xlink:href="#BitstreamVeraSans-Roman-5b"/>
      <use x="357.177734375" xlink:href="#BitstreamVeraSans-Roman-30"/>
      <use x="420.80078125" xlink:href="#BitstreamVeraSans-Roman-2c"/>
      <use x="452.587890625" xlink:href="#BitstreamVeraSans-Roman-20"/>
      <use x="484.375" xlink:href="#BitstreamVeraSans-Roman-33"/>
      <use x="547.998046875" xlink:href="#BitstreamVeraSans-Roman-5d"/>
      <use x="587.01171875" xlink:href="#BitstreamVeraSans-Roman-3a"/>
      <use x="620.703125" xlink:href="#BitstreamVeraSans-Roman-7b"/>
      <use x="684.326171875" xlink:href="#BitstreamVeraSans-Roman-7d"/>
      <use x="747.94921875" xlink:href="#BitstreamVeraSans-Roman-27"/>
      <use x="775.439453125" xlink:href="#BitstreamVeraSans-Roman-2c"/>
      <use x="807.2265625" xlink:href="#BitstreamVeraSans-Roman-20"/>
      <use x="839.013671875" xlink:href="#BitstreamVeraSans-Roman-7b"/>
      <use x="902.63671875" xlink:href="#BitstreamVeraSans-Roman-7d"/>
      <use x="966.259765625" xlink:href="#BitstreamVeraSans-Roman-29"/>
     </g>
    </g>
   </g>
   <g id="text_7">
    <g id="patch_8">
     <path d="
M237.898 408.072
L334.102 382.023
Q336.998 381.239 336.214 378.343
L333.685 369.001
Q332.901 366.106 330.005 366.89
L233.8 392.939
Q230.905 393.723 231.689 396.618
L234.218 405.96
Q235.002 408.856 237.898 408.072
z
" style="fill:#ffffff;stroke:#ffffff;"/>
    </g>
    <g clip-path="url(#pbd0793f99d)">
     <!-- ('Edge[0, 2]:{}', {}) -->
     <g transform="translate(236.570301437 403.168745859)rotate(-15.1504977845)scale(0.1 -0.1)">
      <use xlink:href="#BitstreamVeraSans-Roman-28"/>
      <use x="39.013671875" xlink:href="#BitstreamVeraSans-Roman-27"/>
      <use x="66.50390625" xlink:href="#BitstreamVeraSans-Roman-45"/>
      <use x="129.6875" xlink:href="#BitstreamVeraSans-Roman-64"/>
      <use x="193.1640625" xlink:href="#BitstreamVeraSans-Roman-67"/>
      <use x="256.640625" xlink:href="#BitstreamVeraSans-Roman-65"/>
      <use x="318.1640625" xlink:href="#BitstreamVeraSans-Roman-5b"/>
      <use x="357.177734375" xlink:href="#BitstreamVeraSans-Roman-30"/>
      <use x="420.80078125" xlink:href="#BitstreamVeraSans-Roman-2c"/>
      <use x="452.587890625" xlink:href="#BitstreamVeraSans-Roman-20"/>
      <use x="484.375" xlink:href="#BitstreamVeraSans-Roman-32"/>
      <use x="547.998046875" xlink:href="#BitstreamVeraSans-Roman-5d"/>
      <use x="587.01171875" xlink:href="#BitstreamVeraSans-Roman-3a"/>
      <use x="620.703125" xlink:href="#BitstreamVeraSans-Roman-7b"/>
      <use x="684.326171875" xlink:href="#BitstreamVeraSans-Roman-7d"/>
      <use x="747.94921875" xlink:href="#BitstreamVeraSans-Roman-27"/>
      <use x="775.439453125" xlink:href="#BitstreamVeraSans-Roman-2c"/>
      <use x="807.2265625" xlink:href="#BitstreamVeraSans-Roman-20"/>
      <use x="839.013671875" xlink:href="#BitstreamVeraSans-Roman-7b"/>
      <use x="902.63671875" xlink:href="#BitstreamVeraSans-Roman-7d"/>
      <use x="966.259765625" xlink:href="#BitstreamVeraSans-Roman-29"/>
     </g>
    </g>
   </g>
   <g id="PathCollection_1">
    <defs>
     <path d="
M0 8.66025
C2.29673 8.66025 4.49969 7.74776 6.12372 6.12372
C7.74776 4.49969 8.66025 2.29673 8.66025 0
C8.66025 -2.29673 7.74776 -4.49969 6.12372 -6.12372
C4.49969 -7.74776 2.29673 -8.66025 0 -8.66025
C-2.29673 -8.66025 -4.49969 -7.74776 -6.12372 -6.12372
C-7.74776 -4.49969 -8.66025 -2.29673 -8.66025 0
C-8.66025 2.29673 -7.74776 4.49969 -6.12372 6.12372
C-4.49969 7.74776 -2.29673 8.66025 0 8.66025
z
" id="C2_0_2aea4494f3"/>
    </defs>
    <g clip-path="url(#pbd0793f99d)">
     <use style="fill:#ff0000;stroke:#000000;" x="518.4" xlink:href="#C2_0_2aea4494f3" y="324.0"/>
    </g>
    <g clip-path="url(#pbd0793f99d)">
     <use style="fill:#ff0000;stroke:#000000;" x="339.297199345" xlink:href="#C2_0_2aea4494f3" y="529.428212643"/>
    </g>
    <g clip-path="url(#pbd0793f99d)">
     <use style="fill:#ff0000;stroke:#000000;" x="49.5027774811" xlink:href="#C2_0_2aea4494f3" y="450.961599827"/>
    </g>
    <g clip-path="url(#pbd0793f99d)">
     <use style="fill:#ff0000;stroke:#000000;" x="49.5028083801" xlink:href="#C2_0_2aea4494f3" y="197.038361549"/>
    </g>
    <g clip-path="url(#pbd0793f99d)">
     <use style="fill:#ff0000;stroke:#000000;" x="339.297237968" xlink:href="#C2_0_2aea4494f3" y="118.571800232"/>
    </g>
   </g>
   <g id="text_8">
    <g clip-path="url(#pbd0793f99d)">
     <!-- ('Node[0]\n{}', {}) -->
     <defs>
      <path d="
M54.8906 33.0156
L54.8906 0
L45.9062 0
L45.9062 32.7188
Q45.9062 40.4844 42.875 44.3281
Q39.8438 48.1875 33.7969 48.1875
Q26.5156 48.1875 22.3125 43.5469
Q18.1094 38.9219 18.1094 30.9062
L18.1094 0
L9.07812 0
L9.07812 54.6875
L18.1094 54.6875
L18.1094 46.1875
Q21.3438 51.125 25.7031 53.5625
Q30.0781 56 35.7969 56
Q45.2188 56 50.0469 50.1719
Q54.8906 44.3438 54.8906 33.0156" id="BitstreamVeraSans-Roman-6e"/>
      <path d="
M9.8125 72.9062
L23.0938 72.9062
L55.4219 11.9219
L55.4219 72.9062
L64.9844 72.9062
L64.9844 0
L51.7031 0
L19.3906 60.9844
L19.3906 0
L9.8125 0
z
" id="BitstreamVeraSans-Roman-4e"/>
      <path d="
M30.6094 48.3906
Q23.3906 48.3906 19.1875 42.75
Q14.9844 37.1094 14.9844 27.2969
Q14.9844 17.4844 19.1562 11.8438
Q23.3438 6.20312 30.6094 6.20312
Q37.7969 6.20312 41.9844 11.8594
Q46.1875 17.5312 46.1875 27.2969
Q46.1875 37.0156 41.9844 42.7031
Q37.7969 48.3906 30.6094 48.3906
M30.6094 56
Q42.3281 56 49.0156 48.375
Q55.7188 40.7656 55.7188 27.2969
Q55.7188 13.875 49.0156 6.21875
Q42.3281 -1.42188 30.6094 -1.42188
Q18.8438 -1.42188 12.1719 6.21875
Q5.51562 13.875 5.51562 27.2969
Q5.51562 40.7656 12.1719 48.375
Q18.8438 56 30.6094 56" id="BitstreamVeraSans-Roman-6f"/>
      <path d="
M8.29688 72.9062
L33.6875 -9.28125
L25.3906 -9.28125
L0 72.9062
z
" id="BitstreamVeraSans-Roman-5c"/>
     </defs>
     <g transform="translate(461.8678125 327.31125)scale(0.12 -0.12)">
      <use xlink:href="#BitstreamVeraSans-Roman-28"/>
      <use x="39.013671875" xlink:href="#BitstreamVeraSans-Roman-27"/>
      <use x="66.50390625" xlink:href="#BitstreamVeraSans-Roman-4e"/>
      <use x="141.30859375" xlink:href="#BitstreamVeraSans-Roman-6f"/>
      <use x="202.490234375" xlink:href="#BitstreamVeraSans-Roman-64"/>
      <use x="265.966796875" xlink:href="#BitstreamVeraSans-Roman-65"/>
      <use x="327.490234375" xlink:href="#BitstreamVeraSans-Roman-5b"/>
      <use x="366.50390625" xlink:href="#BitstreamVeraSans-Roman-30"/>
      <use x="430.126953125" xlink:href="#BitstreamVeraSans-Roman-5d"/>
      <use x="469.140625" xlink:href="#BitstreamVeraSans-Roman-5c"/>
      <use x="502.83203125" xlink:href="#BitstreamVeraSans-Roman-6e"/>
      <use x="566.2109375" xlink:href="#BitstreamVeraSans-Roman-7b"/>
      <use x="629.833984375" xlink:href="#BitstreamVeraSans-Roman-7d"/>
      <use x="693.45703125" xlink:href="#BitstreamVeraSans-Roman-27"/>
      <use x="720.947265625" xlink:href="#BitstreamVeraSans-Roman-2c"/>
      <use x="752.734375" xlink:href="#BitstreamVeraSans-Roman-20"/>
      <use x="784.521484375" xlink:href="#BitstreamVeraSans-Roman-7b"/>
      <use x="848.14453125" xlink:href="#BitstreamVeraSans-Roman-7d"/>
      <use x="911.767578125" xlink:href="#BitstreamVeraSans-Roman-29"/>
     </g>
    </g>
   </g>
   <g id="text_9">
    <g clip-path="url(#pbd0793f99d)">
     <!-- ('Node[1]\n{}', {}) -->
     <g transform="translate(282.765011845 532.739462643)scale(0.12 -0.12)">
      <use xlink:href="#BitstreamVeraSans-Roman-28"/>
      <use x="39.013671875" xlink:href="#BitstreamVeraSans-Roman-27"/>
      <use x="66.50390625" xlink:href="#BitstreamVeraSans-Roman-4e"/>
      <use x="141.30859375" xlink:href="#BitstreamVeraSans-Roman-6f"/>
      <use x="202.490234375" xlink:href="#BitstreamVeraSans-Roman-64"/>
      <use x="265.966796875" xlink:href="#BitstreamVeraSans-Roman-65"/>
      <use x="327.490234375" xlink:href="#BitstreamVeraSans-Roman-5b"/>
      <use x="366.50390625" xlink:href="#BitstreamVeraSans-Roman-31"/>
      <use x="430.126953125" xlink:href="#BitstreamVeraSans-Roman-5d"/>
      <use x="469.140625" xlink:href="#BitstreamVeraSans-Roman-5c"/>
      <use x="502.83203125" xlink:href="#BitstreamVeraSans-Roman-6e"/>
      <use x="566.2109375" xlink:href="#BitstreamVeraSans-Roman-7b"/>
      <use x="629.833984375" xlink:href="#BitstreamVeraSans-Roman-7d"/>
      <use x="693.45703125" xlink:href="#BitstreamVeraSans-Roman-27"/>
      <use x="720.947265625" xlink:href="#BitstreamVeraSans-Roman-2c"/>
      <use x="752.734375" xlink:href="#BitstreamVeraSans-Roman-20"/>
      <use x="784.521484375" xlink:href="#BitstreamVeraSans-Roman-7b"/>
      <use x="848.14453125" xlink:href="#BitstreamVeraSans-Roman-7d"/>
      <use x="911.767578125" xlink:href="#BitstreamVeraSans-Roman-29"/>
     </g>
    </g>
   </g>
   <g id="text_10">
    <g clip-path="url(#pbd0793f99d)">
     <!-- ('Node[2]\n{}', {}) -->
     <g transform="translate(-7.02941001892 454.272849827)scale(0.12 -0.12)">
      <use xlink:href="#BitstreamVeraSans-Roman-28"/>
      <use x="39.013671875" xlink:href="#BitstreamVeraSans-Roman-27"/>
      <use x="66.50390625" xlink:href="#BitstreamVeraSans-Roman-4e"/>
      <use x="141.30859375" xlink:href="#BitstreamVeraSans-Roman-6f"/>
      <use x="202.490234375" xlink:href="#BitstreamVeraSans-Roman-64"/>
      <use x="265.966796875" xlink:href="#BitstreamVeraSans-Roman-65"/>
      <use x="327.490234375" xlink:href="#BitstreamVeraSans-Roman-5b"/>
      <use x="366.50390625" xlink:href="#BitstreamVeraSans-Roman-32"/>
      <use x="430.126953125" xlink:href="#BitstreamVeraSans-Roman-5d"/>
      <use x="469.140625" xlink:href="#BitstreamVeraSans-Roman-5c"/>
      <use x="502.83203125" xlink:href="#BitstreamVeraSans-Roman-6e"/>
      <use x="566.2109375" xlink:href="#BitstreamVeraSans-Roman-7b"/>
      <use x="629.833984375" xlink:href="#BitstreamVeraSans-Roman-7d"/>
      <use x="693.45703125" xlink:href="#BitstreamVeraSans-Roman-27"/>
      <use x="720.947265625" xlink:href="#BitstreamVeraSans-Roman-2c"/>
      <use x="752.734375" xlink:href="#BitstreamVeraSans-Roman-20"/>
      <use x="784.521484375" xlink:href="#BitstreamVeraSans-Roman-7b"/>
      <use x="848.14453125" xlink:href="#BitstreamVeraSans-Roman-7d"/>
      <use x="911.767578125" xlink:href="#BitstreamVeraSans-Roman-29"/>
     </g>
    </g>
   </g>
   <g id="text_11">
    <g clip-path="url(#pbd0793f99d)">
     <!-- ('Node[3]\n{}', {}) -->
     <g transform="translate(-7.02937911987 200.349611549)scale(0.12 -0.12)">
      <use xlink:href="#BitstreamVeraSans-Roman-28"/>
      <use x="39.013671875" xlink:href="#BitstreamVeraSans-Roman-27"/>
      <use x="66.50390625" xlink:href="#BitstreamVeraSans-Roman-4e"/>
      <use x="141.30859375" xlink:href="#BitstreamVeraSans-Roman-6f"/>
      <use x="202.490234375" xlink:href="#BitstreamVeraSans-Roman-64"/>
      <use x="265.966796875" xlink:href="#BitstreamVeraSans-Roman-65"/>
      <use x="327.490234375" xlink:href="#BitstreamVeraSans-Roman-5b"/>
      <use x="366.50390625" xlink:href="#BitstreamVeraSans-Roman-33"/>
      <use x="430.126953125" xlink:href="#BitstreamVeraSans-Roman-5d"/>
      <use x="469.140625" xlink:href="#BitstreamVeraSans-Roman-5c"/>
      <use x="502.83203125" xlink:href="#BitstreamVeraSans-Roman-6e"/>
      <use x="566.2109375" xlink:href="#BitstreamVeraSans-Roman-7b"/>
      <use x="629.833984375" xlink:href="#BitstreamVeraSans-Roman-7d"/>
      <use x="693.45703125" xlink:href="#BitstreamVeraSans-Roman-27"/>
      <use x="720.947265625" xlink:href="#BitstreamVeraSans-Roman-2c"/>
      <use x="752.734375" xlink:href="#BitstreamVeraSans-Roman-20"/>
      <use x="784.521484375" xlink:href="#BitstreamVeraSans-Roman-7b"/>
      <use x="848.14453125" xlink:href="#BitstreamVeraSans-Roman-7d"/>
      <use x="911.767578125" xlink:href="#BitstreamVeraSans-Roman-29"/>
     </g>
    </g>
   </g>
   <g id="text_12">
    <g clip-path="url(#pbd0793f99d)">
     <!-- ('Node[5]\n{}', {}) -->
     <g transform="translate(282.765050468 121.883050232)scale(0.12 -0.12)">
      <use xlink:href="#BitstreamVeraSans-Roman-28"/>
      <use x="39.013671875" xlink:href="#BitstreamVeraSans-Roman-27"/>
      <use x="66.50390625" xlink:href="#BitstreamVeraSans-Roman-4e"/>
      <use x="141.30859375" xlink:href="#BitstreamVeraSans-Roman-6f"/>
      <use x="202.490234375" xlink:href="#BitstreamVeraSans-Roman-64"/>
      <use x="265.966796875" xlink:href="#BitstreamVeraSans-Roman-65"/>
      <use x="327.490234375" xlink:href="#BitstreamVeraSans-Roman-5b"/>
      <use x="366.50390625" xlink:href="#BitstreamVeraSans-Roman-35"/>
      <use x="430.126953125" xlink:href="#BitstreamVeraSans-Roman-5d"/>
      <use x="469.140625" xlink:href="#BitstreamVeraSans-Roman-5c"/>
      <use x="502.83203125" xlink:href="#BitstreamVeraSans-Roman-6e"/>
      <use x="566.2109375" xlink:href="#BitstreamVeraSans-Roman-7b"/>
      <use x="629.833984375" xlink:href="#BitstreamVeraSans-Roman-7d"/>
      <use x="693.45703125" xlink:href="#BitstreamVeraSans-Roman-27"/>
      <use x="720.947265625" xlink:href="#BitstreamVeraSans-Roman-2c"/>
      <use x="752.734375" xlink:href="#BitstreamVeraSans-Roman-20"/>
      <use x="784.521484375" xlink:href="#BitstreamVeraSans-Roman-7b"/>
      <use x="848.14453125" xlink:href="#BitstreamVeraSans-Roman-7d"/>
      <use x="911.767578125" xlink:href="#BitstreamVeraSans-Roman-29"/>
     </g>
    </g>
   </g>
  </g>
 </g>
 <defs>
  <clipPath id="pbd0793f99d">
   <rect height="648.0" width="648.0" x="0.0" y="0.0"/>
  </clipPath>
 </defs>
</svg>
